<svg width="78" height="50" viewBox="0 0 78 50" fill="none" xmlns="http://www.w3.org/2000/svg">
<g filter="url(#filter0_d_10_26)">
<path d="M23.9451 15.3545C23.9451 16.2037 24.0371 16.8922 24.1977 17.3971C24.4015 17.9651 24.6469 18.5173 24.9319 19.0493C25.0467 19.2329 25.0924 19.4164 25.0924 19.5772C25.0924 19.8065 24.9549 20.0361 24.6565 20.2657L23.2109 21.2295C23.0043 21.3673 22.7978 21.436 22.6139 21.436C22.3846 21.436 22.1551 21.3212 21.9255 21.1147C21.616 20.7826 21.3394 20.4214 21.0995 20.0361C20.8699 19.6463 20.6404 19.2099 20.3881 18.6822C18.5979 20.7933 16.3489 21.849 13.6411 21.8491C11.7135 21.8491 10.1758 21.2982 9.05125 20.1969C7.92693 19.0951 7.35327 17.6264 7.35327 15.7906C7.35327 13.8401 8.04172 12.2566 9.44163 11.0633C10.8413 9.8699 12.7003 9.27323 15.064 9.27323C15.8442 9.27323 16.6475 9.34199 17.4965 9.45678C18.3457 9.57157 19.2177 9.75512 20.1357 9.96168V8.28644C20.1357 6.54217 19.7684 5.32608 19.0569 4.61462C18.3227 3.90316 17.0833 3.5588 15.3163 3.5588C14.5131 3.5588 13.6871 3.65085 12.8379 3.85741C11.9886 4.06397 11.1626 4.31629 10.3594 4.63763C9.99228 4.79817 9.71696 4.88995 9.55615 4.93597C9.39534 4.982 9.28082 5.00474 9.18905 5.00474C8.8677 5.00474 8.70716 4.77516 8.70716 4.29327V3.16869C8.70716 2.80159 8.75318 2.52626 8.8677 2.36572C8.98248 2.20492 9.18905 2.04438 9.51039 1.88384C10.3135 1.47053 11.2773 1.12626 12.4017 0.851028C13.5266 0.552691 14.7199 0.415164 15.982 0.415164C18.7131 0.415164 20.7097 1.03458 21.9948 2.27395C23.2569 3.51305 23.8996 5.39485 23.8996 7.91934V15.3545H23.9451ZM14.6279 18.8428C15.3854 18.8428 16.1656 18.7052 16.9916 18.4296C17.8178 18.1543 18.5523 17.6494 19.1717 16.961C19.5391 16.5251 19.8144 16.0432 19.9519 15.4923C20.0897 14.9416 20.1815 14.2759 20.1815 13.4957V12.5319C19.4855 12.3627 18.7806 12.2324 18.0701 12.1418C17.3547 12.051 16.6342 12.005 15.913 12.004C14.3753 12.004 13.251 12.3024 12.4938 12.922C11.7366 13.5417 11.3692 14.4137 11.3692 15.561C11.3692 16.6396 11.6445 17.4428 12.2182 17.9938C12.7691 18.5674 13.5723 18.8428 14.6279 18.8428ZM33.0557 21.3212C32.6426 21.3212 32.3673 21.2525 32.1837 21.0917C32.0002 20.9541 31.8394 20.6328 31.7018 20.1969L26.309 2.4575C26.171 1.99835 26.1022 1.70002 26.1022 1.53948C26.1022 1.17238 26.2858 0.965544 26.6531 0.965544H28.902C29.3379 0.965544 29.6365 1.03458 29.797 1.19512C29.9806 1.33292 30.1184 1.65426 30.2559 2.09013L34.1113 17.2823L37.6913 2.09013C37.8061 1.63125 37.9439 1.33292 38.1272 1.19512C38.311 1.05759 38.6324 0.965815 39.0455 0.965815H40.8813C41.3171 0.965815 41.6157 1.03458 41.799 1.19512C41.9828 1.33292 42.1434 1.65426 42.2351 2.09013L45.8612 17.4659L49.8311 2.09013C49.9686 1.63125 50.1294 1.33292 50.29 1.19512C50.4735 1.05759 50.7719 0.965815 51.185 0.965815H53.3191C53.6865 0.965815 53.893 1.14937 53.893 1.53948C53.893 1.65426 53.87 1.76905 53.847 1.90658C53.824 2.04411 53.7783 2.22793 53.6865 2.48051L48.1556 20.2197C48.0181 20.6788 47.8574 20.9771 47.6737 21.1147C47.4902 21.2525 47.1918 21.3442 46.802 21.3442H44.8284C44.3923 21.3442 44.0939 21.2755 43.9101 21.1147C43.7266 20.9541 43.566 20.6558 43.4743 20.1969L39.917 5.39485L36.3829 20.1736C36.2684 20.6328 36.1306 20.9311 35.9471 21.0917C35.7635 21.2525 35.4422 21.3212 35.0293 21.3212H33.0557ZM62.5448 21.9409C61.3515 21.9409 60.1581 21.8031 59.0108 21.5278C57.8632 21.2525 56.9685 20.9539 56.3718 20.61C56.0044 20.4032 55.7518 20.1739 55.6603 19.9673C55.5711 19.7647 55.5242 19.546 55.5225 19.3246V18.1543C55.5225 17.6724 55.7061 17.4428 56.0504 17.4428C56.191 17.4434 56.3305 17.4667 56.4636 17.5119C56.6011 17.5579 56.8076 17.6494 57.0372 17.7412C57.8477 18.0979 58.6939 18.3672 59.5614 18.5444C60.4604 18.7267 61.3753 18.8189 62.2925 18.8197C63.7382 18.8197 64.8627 18.5674 65.643 18.0625C66.4232 17.5576 66.8363 16.8234 66.8363 15.8824C66.8363 15.24 66.6298 14.7121 66.2166 14.2759C65.8035 13.8398 65.0233 13.4499 63.899 13.0826L60.5712 12.05C58.896 11.5221 57.6569 10.7419 56.8994 9.70909C56.1422 8.6993 55.7521 7.57498 55.7521 6.38163C55.7521 5.41786 55.9587 4.56869 56.3718 3.83413C56.7846 3.09993 57.3356 2.4575 58.024 1.9526C58.7125 1.42469 59.4927 1.03458 60.4107 0.759253C61.3285 0.483927 62.2922 0.369141 63.302 0.369141C63.8069 0.369141 64.3348 0.392152 64.8397 0.460916C65.3676 0.52968 65.8495 0.621455 66.3314 0.71323C66.7903 0.828017 67.2264 0.942803 67.6396 1.0806C68.0525 1.21813 68.3738 1.35575 68.6033 1.49345C68.9247 1.67728 69.154 1.86083 69.2918 2.06739C69.4295 2.25094 69.4983 2.50334 69.4983 2.8246V3.90316C69.4983 4.38505 69.3148 4.63763 68.9704 4.63763C68.7869 4.63763 68.4885 4.54559 68.0987 4.36204C66.7902 3.76536 65.3214 3.46703 63.6924 3.46703C62.3843 3.46703 61.3515 3.67359 60.64 4.10972C59.9288 4.54559 59.5614 5.2113 59.5614 6.15206C59.5614 6.79476 59.791 7.34541 60.2499 7.78154C60.7088 8.21768 61.558 8.65354 62.7744 9.04366L66.0331 10.0765C67.6853 10.6044 68.8787 11.3386 69.5901 12.2793C70.3016 13.2201 70.6459 14.2989 70.6459 15.4923C70.6459 16.4791 70.4391 17.3741 70.049 18.1543C69.6361 18.9345 69.0852 19.623 68.3738 20.1739C67.6623 20.7476 66.8133 21.1607 65.8265 21.459C64.7937 21.7804 63.7151 21.9409 62.5448 21.9409Z" fill="#252F3E"/>
<path d="M66.8817 33.0941C59.3318 38.6707 48.3621 41.6311 38.9304 41.6311C25.7118 41.6311 13.8016 36.7429 4.80575 28.6191C4.09429 27.9766 4.73671 27.1046 5.5857 27.6093C15.316 33.2549 27.3183 36.6742 39.7336 36.6742C48.1098 36.6742 57.3122 34.9302 65.7804 31.3501C67.0426 30.7762 68.1211 32.1764 66.8817 33.0941ZM70.0259 29.5141C69.0621 28.275 63.6461 28.9174 61.1906 29.2157C60.4561 29.3078 60.3413 28.6651 61.0071 28.1832C65.3213 25.1538 72.4126 26.0261 73.2386 27.0356C74.0648 28.0684 73.009 35.1595 68.9701 38.556C68.3507 39.0839 67.754 38.8085 68.0293 38.1201C68.9471 35.8479 70.9897 30.7304 70.0259 29.5141Z" fill="#FF9900"/>
</g>
<defs>
<filter id="filter0_d_10_26" x="0.5" y="0.369141" width="77" height="49.262" filterUnits="userSpaceOnUse" color-interpolation-filters="sRGB">
<feFlood flood-opacity="0" result="BackgroundImageFix"/>
<feColorMatrix in="SourceAlpha" type="matrix" values="0 0 0 0 0 0 0 0 0 0 0 0 0 0 0 0 0 0 127 0" result="hardAlpha"/>
<feOffset dy="4"/>
<feGaussianBlur stdDeviation="2"/>
<feComposite in2="hardAlpha" operator="out"/>
<feColorMatrix type="matrix" values="0 0 0 0 0 0 0 0 0 0 0 0 0 0 0 0 0 0 0.25 0"/>
<feBlend mode="normal" in2="BackgroundImageFix" result="effect1_dropShadow_10_26"/>
<feBlend mode="normal" in="SourceGraphic" in2="effect1_dropShadow_10_26" result="shape"/>
</filter>
</defs>
</svg>
