<svg width="70" height="42" viewBox="0 0 70 42" fill="none" xmlns="http://www.w3.org/2000/svg">
<path d="M19.9451 15.3545C19.9451 16.2037 20.0371 16.8922 20.1977 17.3971C20.4015 17.9651 20.6469 18.5173 20.9319 19.0493C21.0467 19.2329 21.0924 19.4164 21.0924 19.5772C21.0924 19.8065 20.9549 20.0361 20.6565 20.2657L19.2109 21.2295C19.0043 21.3673 18.7978 21.436 18.6139 21.436C18.3846 21.436 18.1551 21.3212 17.9255 21.1147C17.616 20.7826 17.3394 20.4214 17.0995 20.0361C16.8699 19.6463 16.6404 19.2099 16.3881 18.6822C14.5979 20.7933 12.3489 21.849 9.64109 21.8491C7.71354 21.8491 6.17583 21.2982 5.05125 20.1969C3.92693 19.0951 3.35327 17.6264 3.35327 15.7906C3.35327 13.8401 4.04172 12.2566 5.44163 11.0633C6.84127 9.8699 8.70033 9.27323 11.064 9.27323C11.8442 9.27323 12.6475 9.34199 13.4965 9.45678C14.3457 9.57157 15.2177 9.75512 16.1357 9.96168V8.28644C16.1357 6.54217 15.7684 5.32608 15.0569 4.61462C14.3227 3.90316 13.0833 3.5588 11.3163 3.5588C10.5131 3.5588 9.68711 3.65085 8.83785 3.85741C7.9886 4.06397 7.16262 4.31629 6.35938 4.63763C5.99228 4.79817 5.71696 4.88995 5.55615 4.93597C5.39534 4.982 5.28082 5.00474 5.18905 5.00474C4.8677 5.00474 4.70716 4.77516 4.70716 4.29327V3.16869C4.70716 2.80159 4.75318 2.52626 4.8677 2.36572C4.98248 2.20492 5.18905 2.04438 5.51039 1.88384C6.31354 1.47053 7.27732 1.12626 8.40172 0.851028C9.52657 0.552691 10.7199 0.415164 11.982 0.415164C14.7131 0.415164 16.7097 1.03458 17.9948 2.27395C19.2569 3.51305 19.8996 5.39485 19.8996 7.91934V15.3545H19.9451ZM10.6279 18.8428C11.3854 18.8428 12.1656 18.7052 12.9916 18.4296C13.8178 18.1543 14.5523 17.6494 15.1717 16.961C15.5391 16.5251 15.8144 16.0432 15.9519 15.4923C16.0897 14.9416 16.1815 14.2759 16.1815 13.4957V12.5319C15.4855 12.3627 14.7806 12.2324 14.0701 12.1418C13.3547 12.051 12.6342 12.005 11.913 12.004C10.3753 12.004 9.25098 12.3024 8.49376 12.922C7.73655 13.5417 7.36918 14.4137 7.36918 15.561C7.36918 16.6396 7.64451 17.4428 8.21817 17.9938C8.76909 18.5674 9.57233 18.8428 10.6279 18.8428ZM29.0557 21.3212C28.6426 21.3212 28.3673 21.2525 28.1837 21.0917C28.0002 20.9541 27.8394 20.6328 27.7018 20.1969L22.309 2.4575C22.171 1.99835 22.1022 1.70002 22.1022 1.53948C22.1022 1.17238 22.2858 0.965544 22.6531 0.965544H24.902C25.3379 0.965544 25.6365 1.03458 25.797 1.19512C25.9806 1.33292 26.1184 1.65426 26.2559 2.09013L30.1113 17.2823L33.6913 2.09013C33.8061 1.63125 33.9439 1.33292 34.1272 1.19512C34.311 1.05759 34.6324 0.965815 35.0455 0.965815H36.8813C37.3171 0.965815 37.6157 1.03458 37.799 1.19512C37.9828 1.33292 38.1434 1.65426 38.2351 2.09013L41.8612 17.4659L45.8311 2.09013C45.9686 1.63125 46.1294 1.33292 46.29 1.19512C46.4735 1.05759 46.7719 0.965815 47.185 0.965815H49.3191C49.6865 0.965815 49.893 1.14937 49.893 1.53948C49.893 1.65426 49.87 1.76905 49.847 1.90658C49.824 2.04411 49.7783 2.22793 49.6865 2.48051L44.1556 20.2197C44.0181 20.6788 43.8574 20.9771 43.6737 21.1147C43.4902 21.2525 43.1918 21.3442 42.802 21.3442H40.8284C40.3923 21.3442 40.0939 21.2755 39.9101 21.1147C39.7266 20.9541 39.566 20.6558 39.4743 20.1969L35.917 5.39485L32.3829 20.1736C32.2684 20.6328 32.1306 20.9311 31.9471 21.0917C31.7635 21.2525 31.4422 21.3212 31.0293 21.3212H29.0557ZM58.5448 21.9409C57.3515 21.9409 56.1581 21.8031 55.0108 21.5278C53.8632 21.2525 52.9685 20.9539 52.3718 20.61C52.0044 20.4032 51.7518 20.1739 51.6603 19.9673C51.5711 19.7647 51.5242 19.546 51.5225 19.3246V18.1543C51.5225 17.6724 51.7061 17.4428 52.0504 17.4428C52.191 17.4434 52.3305 17.4667 52.4636 17.5119C52.6011 17.5579 52.8076 17.6494 53.0372 17.7412C53.8477 18.0979 54.6939 18.3672 55.5614 18.5444C56.4604 18.7267 57.3753 18.8189 58.2925 18.8197C59.7382 18.8197 60.8627 18.5674 61.643 18.0625C62.4232 17.5576 62.8363 16.8234 62.8363 15.8824C62.8363 15.24 62.6298 14.7121 62.2166 14.2759C61.8035 13.8398 61.0233 13.4499 59.899 13.0826L56.5712 12.05C54.896 11.5221 53.6569 10.7419 52.8994 9.70909C52.1422 8.6993 51.7521 7.57498 51.7521 6.38163C51.7521 5.41786 51.9587 4.56869 52.3718 3.83413C52.7846 3.09993 53.3356 2.4575 54.024 1.9526C54.7125 1.42469 55.4927 1.03458 56.4107 0.759253C57.3285 0.483927 58.2922 0.369141 59.302 0.369141C59.8069 0.369141 60.3348 0.392152 60.8397 0.460916C61.3676 0.52968 61.8495 0.621455 62.3314 0.71323C62.7903 0.828017 63.2264 0.942803 63.6396 1.0806C64.0525 1.21813 64.3738 1.35575 64.6033 1.49345C64.9247 1.67728 65.154 1.86083 65.2918 2.06739C65.4295 2.25094 65.4983 2.50334 65.4983 2.8246V3.90316C65.4983 4.38505 65.3148 4.63763 64.9704 4.63763C64.7869 4.63763 64.4885 4.54559 64.0987 4.36204C62.7902 3.76536 61.3214 3.46703 59.6924 3.46703C58.3843 3.46703 57.3515 3.67359 56.64 4.10972C55.9288 4.54559 55.5614 5.2113 55.5614 6.15206C55.5614 6.79476 55.791 7.34541 56.2499 7.78154C56.7088 8.21768 57.558 8.65354 58.7744 9.04366L62.0331 10.0765C63.6853 10.6044 64.8787 11.3386 65.5901 12.2793C66.3016 13.2201 66.6459 14.2989 66.6459 15.4923C66.6459 16.4791 66.4391 17.3741 66.049 18.1543C65.6361 18.9345 65.0852 19.623 64.3738 20.1739C63.6623 20.7476 62.8133 21.1607 61.8265 21.459C60.7937 21.7804 59.7151 21.9409 58.5448 21.9409Z" fill="#252F3E"/>
<path d="M62.8817 33.0941C55.3318 38.6707 44.3621 41.6311 34.9304 41.6311C21.7118 41.6311 9.80161 36.7429 0.805747 28.6191C0.0942866 27.9766 0.736713 27.1046 1.5857 27.6093C11.316 33.2549 23.3183 36.6742 35.7336 36.6742C44.1098 36.6742 53.3122 34.9302 61.7804 31.3501C63.0426 30.7762 64.1211 32.1764 62.8817 33.0941ZM66.0259 29.5141C65.0621 28.275 59.6461 28.9174 57.1906 29.2157C56.4561 29.3078 56.3413 28.6651 57.0071 28.1832C61.3213 25.1538 68.4126 26.0261 69.2386 27.0356C70.0648 28.0684 69.009 35.1595 64.9701 38.556C64.3507 39.0839 63.754 38.8085 64.0293 38.1201C64.9471 35.8479 66.9897 30.7304 66.0259 29.5141Z" fill="#FF9900"/>
</svg>
