<svg width="73" height="60" viewBox="0 0 73 60" fill="none" xmlns="http://www.w3.org/2000/svg">
<path d="M0.0401611 9.28583H17.0399V14.2858H0.0401611V9.28583ZM0.0401611 0H17.0399V4.99995H0.0401611V0ZM30.5404 18.5001H0.0401611V23.5H29.3974C32.6116 23.5 40.1114 23.5713 42.8972 28.0714V25.2858C41.5401 20.857 37.5405 18.5001 30.5404 18.5001ZM30.6111 27.7856H0.0401611V32.7856H29.3974C36.5401 32.7856 41.0402 33.0713 42.8972 34.0714V31.857C41.4685 28.3571 35.4687 27.7856 30.6116 27.7856M30.5406 51.357H0.0401611V46.357H29.3974C32.6116 46.357 40.1114 46.2857 42.8972 41.7857V44.5712C41.5401 49 37.5402 51.357 30.5401 51.357M30.6111 42.0714H0.0401611V37.0715H29.3974C36.5401 37.0715 41.0402 36.7857 42.8972 35.7856V38C41.4685 41.4999 35.4687 42.0714 30.6116 42.0714M50.326 60H72.7543V56.9284H50.9685C49.0399 56.9284 44.4688 56.8571 42.8259 54.2141V55.9286C43.6116 58.5713 46.0404 60 50.326 60ZM50.2544 54.357H72.6831V51.2857H50.9685C46.6113 51.2857 43.897 51.1428 42.8256 50.5V51.8571C43.6826 53.9999 47.3257 54.357 50.2544 54.357Z" fill="#010101"/>
</svg>
