<svg width="62" height="70" viewBox="0 0 62 70" fill="none" xmlns="http://www.w3.org/2000/svg">
<path d="M60.2345 16.1408L32.8801 0.39644C32.427 0.113269 31.8041 0 31.1245 0C30.4448 0 29.8219 0.169903 29.3688 0.39644L2.18433 16.1974C1.22154 16.7638 0.541931 18.1796 0.541931 19.2557V50.801C0.541931 51.424 0.6552 52.1602 1.10827 52.7832L61.5937 17.6699C61.2539 16.9903 60.7442 16.4806 60.2345 16.1408Z" fill="#9B4F96"/>
<path d="M0.938372 52.7266C1.22154 53.1796 1.61798 53.5761 2.01442 53.8026L29.3122 69.6036C29.7652 69.8868 30.3882 70 31.0678 70C31.7474 70 32.3704 69.8301 32.8235 69.6036L60.008 53.8026C60.9707 53.2363 61.6504 51.8204 61.6504 50.7444V19.199C61.6504 18.6893 61.5937 18.123 61.3106 17.6133L0.938372 52.7266Z" fill="#68217A"/>
<path d="M43.1876 41.8528C40.8089 46.0437 36.2782 48.8754 31.1245 48.8754C23.4788 48.8754 17.2491 42.6456 17.2491 35C17.2491 27.3544 23.4788 21.1246 31.1245 21.1246C36.2782 21.1246 40.8089 23.9563 43.1876 28.2039L50.55 23.9563C46.6989 17.2168 39.4497 12.6295 31.1245 12.6295C18.7782 12.6295 8.75391 22.6537 8.75391 35C8.75391 47.3463 18.7782 57.3706 31.1245 57.3706C39.3931 57.3706 46.6423 52.8398 50.4934 46.157L43.1876 41.8528ZM49.8138 36.246L50.3235 33.8107H47.9449V31.1489H50.8332L51.5128 27.6375H54.2879L53.6083 31.0922H55.7604L56.44 27.6375H59.1585L58.4788 31.0922H59.8381V33.7541H57.9691L57.4594 36.1893H59.8381V38.8511H56.9497L56.2701 42.2492H53.495L54.1746 38.8511H52.0225L51.3429 42.2492H48.6245L49.3041 38.8511H47.9449V36.1893H49.8138V36.246ZM52.5322 36.246H54.6843L55.194 33.8107H53.0419L52.5322 36.246Z" fill="white"/>
</svg>
