<svg width="62" height="70" viewBox="0 0 62 70" fill="none" xmlns="http://www.w3.org/2000/svg">
<path d="M60.4213 16.1408L33.0669 0.39644C32.6138 0.113269 31.9909 0 31.3113 0C30.6316 0 30.0087 0.169903 29.5556 0.39644L2.37112 16.1974C1.40834 16.7638 0.728729 18.1796 0.728729 19.2557V50.801C0.728729 51.424 0.841998 52.1602 1.29507 52.7832L61.7805 17.6699C61.4407 16.9903 60.931 16.4806 60.4213 16.1408Z" fill="#9B4F96"/>
<path d="M1.12517 52.7266C1.40834 53.1796 1.80478 53.5761 2.20122 53.8026L29.499 69.6036C29.952 69.8868 30.575 70 31.2546 70C31.9342 70 32.5572 69.8301 33.0103 69.6036L60.1948 53.8026C61.1575 53.2363 61.8372 51.8204 61.8372 50.7444V19.199C61.8372 18.6893 61.7805 18.123 61.4973 17.6133L1.12517 52.7266Z" fill="#68217A"/>
<path d="M43.3744 41.8528C40.9957 46.0437 36.465 48.8754 31.3113 48.8754C23.6656 48.8754 17.4359 42.6456 17.4359 35C17.4359 27.3544 23.6656 21.1246 31.3113 21.1246C36.465 21.1246 40.9957 23.9563 43.3744 28.2039L50.7368 23.9563C46.8857 17.2168 39.6365 12.6295 31.3113 12.6295C18.965 12.6295 8.9407 22.6537 8.9407 35C8.9407 47.3463 18.965 57.3706 31.3113 57.3706C39.5799 57.3706 46.8291 52.8398 50.6802 46.157L43.3744 41.8528ZM50.0006 36.246L50.5103 33.8107H48.1317V31.1489H51.02L51.6996 27.6375H54.4747L53.7951 31.0922H55.9472L56.6268 27.6375H59.3452L58.6656 31.0922H60.0249V33.7541H58.1559L57.6462 36.1893H60.0249V38.8511H57.1365L56.4569 42.2492H53.6818L54.3614 38.8511H52.2093L51.5297 42.2492H48.8113L49.4909 38.8511H48.1317V36.1893H50.0006V36.246ZM52.719 36.246H54.8711L55.3808 33.8107H53.2287L52.719 36.246Z" fill="white"/>
</svg>
