<svg width="92" height="66" viewBox="0 0 92 66" fill="none" xmlns="http://www.w3.org/2000/svg">
<path d="M89.181 25.3037C87.1527 23.8963 82.5045 23.3686 78.8707 24.0722C78.4485 20.5538 76.5046 17.4756 73.1241 14.7488L71.1805 13.3415L69.8281 15.3645C68.1382 18.0033 67.2931 21.6977 67.5464 25.2161C67.6308 26.4472 68.0534 28.6462 69.3211 30.5813C68.1382 31.285 65.6873 32.1646 62.476 32.1646H1.37546L1.20657 32.8682C0.614779 36.3863 0.614778 47.3809 7.54462 55.8248C12.7842 62.2455 20.5592 65.5 30.7847 65.5C52.926 65.5 69.3211 54.8568 77.0116 35.5946C80.0539 35.6826 86.5612 35.5946 89.8573 28.9976C89.9417 28.8217 90.1106 28.4699 90.702 27.1508L91.0402 26.4472L89.181 25.3037ZM50.2218 0.5H40.9262V9.29565H50.2218V0.5ZM50.2218 11.0549H40.9262V19.8505H50.2218V11.0549ZM39.2356 11.0549H29.94V19.8505H39.2356V11.0549ZM28.2494 11.0549H18.9534V19.8505H28.2494V11.0549ZM17.2632 21.6097H7.96718V30.4054H17.2628L17.2632 21.6097ZM28.2494 21.6097H18.9534V30.4054H28.2494V21.6097ZM39.2356 21.6097H29.94V30.4054H39.2356V21.6097ZM50.2221 21.6097H40.9258V30.4054H50.2221V21.6097ZM61.2083 21.6097H51.912V30.4054H61.2083V21.6097Z" fill="#2396ED"/>
</svg>
