<svg width="99" height="74" viewBox="0 0 99 74" fill="none" xmlns="http://www.w3.org/2000/svg">
<g filter="url(#filter0_d_164_3)">
<path d="M92.6568 25.3037C90.6284 23.8963 85.9803 23.3686 82.3465 24.0722C81.9243 20.5538 79.9804 17.4756 76.5999 14.7488L74.6563 13.3415L73.3038 15.3645C71.6139 18.0033 70.7688 21.6977 71.0221 25.2161C71.1066 26.4472 71.5292 28.6462 72.7968 30.5813C71.6139 31.285 69.163 32.1646 65.9518 32.1646H4.85123L4.68234 32.8682C4.09055 36.3863 4.09055 47.3809 11.0204 55.8248C16.26 62.2455 24.035 65.5 34.2605 65.5C56.4018 65.5 72.7968 54.8568 80.4874 35.5946C83.5297 35.6826 90.037 35.5946 93.333 28.9976C93.4175 28.8217 93.5864 28.4699 94.1778 27.1508L94.5159 26.4472L92.6568 25.3037ZM53.6975 0.5H44.4019V9.29565H53.6975V0.5ZM53.6975 11.0549H44.4019V19.8505H53.6975V11.0549ZM42.7113 11.0549H33.4157V19.8505H42.7113V11.0549ZM31.7251 11.0549H22.4292V19.8505H31.7251V11.0549ZM20.7389 21.6097H11.443V30.4054H20.7386L20.7389 21.6097ZM31.7251 21.6097H22.4292V30.4054H31.7251V21.6097ZM42.7113 21.6097H33.4157V30.4054H42.7113V21.6097ZM53.6979 21.6097H44.4016V30.4054H53.6979V21.6097ZM64.6841 21.6097H55.3878V30.4054H64.6841V21.6097Z" fill="#2396ED"/>
</g>
<defs>
<filter id="filter0_d_164_3" x="0.444946" y="0.5" width="98.071" height="73" filterUnits="userSpaceOnUse" color-interpolation-filters="sRGB">
<feFlood flood-opacity="0" result="BackgroundImageFix"/>
<feColorMatrix in="SourceAlpha" type="matrix" values="0 0 0 0 0 0 0 0 0 0 0 0 0 0 0 0 0 0 127 0" result="hardAlpha"/>
<feOffset dy="4"/>
<feGaussianBlur stdDeviation="2"/>
<feComposite in2="hardAlpha" operator="out"/>
<feColorMatrix type="matrix" values="0 0 0 0 0 0 0 0 0 0 0 0 0 0 0 0 0 0 0.25 0"/>
<feBlend mode="normal" in2="BackgroundImageFix" result="effect1_dropShadow_164_3"/>
<feBlend mode="normal" in="SourceGraphic" in2="effect1_dropShadow_164_3" result="shape"/>
</filter>
</defs>
</svg>
