<svg width="36" height="50" viewBox="0 0 36 50" fill="none" xmlns="http://www.w3.org/2000/svg">
<g filter="url(#filter0_d_11_8)">
<path d="M11.25 41.25C14.976 41.25 18 38.226 18 34.5V27.75H11.25C7.524 27.75 4.5 30.774 4.5 34.5C4.5 38.226 7.524 41.25 11.25 41.25Z" fill="#0ACF83"/>
<path d="M4.5 21C4.5 17.274 7.524 14.25 11.25 14.25H18V27.75H11.25C7.524 27.75 4.5 24.726 4.5 21Z" fill="#A259FF"/>
<path d="M4.5 7.49998C4.5 3.77397 7.524 0.749969 11.25 0.749969H18V14.25H11.25C7.524 14.25 4.5 11.226 4.5 7.49998Z" fill="#F24E1E"/>
<path d="M18 0.749969H24.75C28.476 0.749969 31.5 3.77397 31.5 7.49998C31.5 11.226 28.476 14.25 24.75 14.25H18V0.749969Z" fill="#FF7262"/>
<path d="M31.5 21C31.5 24.726 28.476 27.75 24.75 27.75C21.024 27.75 18 24.726 18 21C18 17.274 21.024 14.25 24.75 14.25C28.476 14.25 31.5 17.274 31.5 21Z" fill="#1ABCFE"/>
</g>
<defs>
<filter id="filter0_d_11_8" x="0.5" y="0.749969" width="35" height="48.5" filterUnits="userSpaceOnUse" color-interpolation-filters="sRGB">
<feFlood flood-opacity="0" result="BackgroundImageFix"/>
<feColorMatrix in="SourceAlpha" type="matrix" values="0 0 0 0 0 0 0 0 0 0 0 0 0 0 0 0 0 0 127 0" result="hardAlpha"/>
<feOffset dy="4"/>
<feGaussianBlur stdDeviation="2"/>
<feComposite in2="hardAlpha" operator="out"/>
<feColorMatrix type="matrix" values="0 0 0 0 0 0 0 0 0 0 0 0 0 0 0 0 0 0 0.25 0"/>
<feBlend mode="normal" in2="BackgroundImageFix" result="effect1_dropShadow_11_8"/>
<feBlend mode="normal" in="SourceGraphic" in2="effect1_dropShadow_11_8" result="shape"/>
</filter>
</defs>
</svg>
