<svg width="28" height="42" viewBox="0 0 28 42" fill="none" xmlns="http://www.w3.org/2000/svg">
<path d="M7.25001 41.25C10.976 41.25 14 38.226 14 34.5V27.75H7.25001C3.524 27.75 0.5 30.774 0.5 34.5C0.5 38.226 3.524 41.25 7.25001 41.25Z" fill="#0ACF83"/>
<path d="M0.5 21C0.5 17.274 3.524 14.25 7.25001 14.25H14V27.75H7.25001C3.524 27.75 0.5 24.726 0.5 21Z" fill="#A259FF"/>
<path d="M0.5 7.49998C0.5 3.77397 3.524 0.749969 7.25001 0.749969H14V14.25H7.25001C3.524 14.25 0.5 11.226 0.5 7.49998Z" fill="#F24E1E"/>
<path d="M14 0.749969H20.75C24.476 0.749969 27.5 3.77397 27.5 7.49998C27.5 11.226 24.476 14.25 20.75 14.25H14V0.749969Z" fill="#FF7262"/>
<path d="M27.5 21C27.5 24.726 24.476 27.75 20.75 27.75C17.024 27.75 14 24.726 14 21C14 17.274 17.024 14.25 20.75 14.25C24.476 14.25 27.5 17.274 27.5 21Z" fill="#1ABCFE"/>
</svg>
