<svg width="54" height="54" viewBox="0 0 54 54" fill="none" xmlns="http://www.w3.org/2000/svg">
<g filter="url(#filter0_d_13_22)">
<path d="M26.7089 0C23.7267 0 20.7737 0.603931 18.0186 1.77731C15.2634 2.95069 12.76 4.67054 10.6513 6.83867C6.39254 11.2174 4 17.1562 4 23.3487C4 33.6688 10.5175 42.4245 19.5329 45.5299C20.6683 45.7167 21.0317 44.9929 21.0317 44.3625V40.4165C14.7413 41.8175 13.4015 37.2878 13.4015 37.2878C12.3569 34.5794 10.8808 33.8556 10.8808 33.8556C8.81429 32.408 11.0398 32.4547 11.0398 32.4547C13.3106 32.6181 14.5142 34.8596 14.5142 34.8596C16.4899 38.4086 19.8281 37.3579 21.1225 36.7975C21.3269 35.2798 21.9173 34.2525 22.5532 33.6688C17.5118 33.0851 12.2206 31.0771 12.2206 22.1812C12.2206 19.5895 13.0836 17.5115 14.5596 15.8537C14.3325 15.27 13.5377 12.8418 14.7867 9.6897C14.7867 9.6897 16.6943 9.05928 21.0317 12.0713C22.8257 11.5576 24.7786 11.3008 26.7089 11.3008C28.6392 11.3008 30.5921 11.5576 32.3861 12.0713C36.7235 9.05928 38.6311 9.6897 38.6311 9.6897C39.8801 12.8418 39.0852 15.27 38.8582 15.8537C40.3342 17.5115 41.1972 19.5895 41.1972 22.1812C41.1972 31.1004 35.8833 33.0617 30.8192 33.6454C31.6367 34.3692 32.3861 35.7935 32.3861 37.9649V44.3625C32.3861 44.9929 32.7495 45.74 33.9076 45.5299C42.923 42.4012 49.4178 33.6688 49.4178 23.3487C49.4178 20.2825 48.8304 17.2463 47.6892 14.4135C46.548 11.5807 44.8752 9.00679 42.7665 6.83867C40.6578 4.67054 38.1544 2.95069 35.3992 1.77731C32.644 0.603931 29.6911 0 26.7089 0Z" fill="#CDDDDD"/>
</g>
<defs>
<filter id="filter0_d_13_22" x="0" y="0" width="53.4178" height="53.5661" filterUnits="userSpaceOnUse" color-interpolation-filters="sRGB">
<feFlood flood-opacity="0" result="BackgroundImageFix"/>
<feColorMatrix in="SourceAlpha" type="matrix" values="0 0 0 0 0 0 0 0 0 0 0 0 0 0 0 0 0 0 127 0" result="hardAlpha"/>
<feOffset dy="4"/>
<feGaussianBlur stdDeviation="2"/>
<feComposite in2="hardAlpha" operator="out"/>
<feColorMatrix type="matrix" values="0 0 0 0 0 0 0 0 0 0 0 0 0 0 0 0 0 0 0.25 0"/>
<feBlend mode="normal" in2="BackgroundImageFix" result="effect1_dropShadow_13_22"/>
<feBlend mode="normal" in="SourceGraphic" in2="effect1_dropShadow_13_22" result="shape"/>
</filter>
</defs>
</svg>
