<svg width="70" height="70" viewBox="0 0 70 70" fill="none" xmlns="http://www.w3.org/2000/svg">
<path d="M0.5 0.5H69.5V69.5H0.5V0.5Z" fill="#F7DF1E"/>
<path d="M18.6425 58.1611L23.9227 54.9656C24.9415 56.7717 25.8681 58.2999 28.091 58.2999C30.2216 58.2999 31.5652 57.4665 31.5652 54.2246V32.1775H38.0493V54.3163C38.0493 61.0322 34.1126 64.0892 28.3689 64.0892C23.1817 64.0892 20.1708 61.4028 18.6423 58.1606M41.5713 57.4663L46.8509 54.4095C48.2409 56.6792 50.0473 58.3466 53.2428 58.3466C55.9298 58.3466 57.6429 57.0032 57.6429 55.1505C57.6429 52.9274 55.8829 52.1398 52.9186 50.8433L51.2979 50.148C46.6196 48.1569 43.5165 45.6557 43.5165 40.3756C43.5165 35.5122 47.2218 31.8066 53.0116 31.8066C57.1338 31.8066 60.0981 33.2427 62.2285 36.9943L57.1796 40.2368C56.0678 38.2452 54.864 37.4579 53.0113 37.4579C51.1122 37.4579 49.9079 38.6622 49.9079 40.2368C49.9079 42.182 51.1122 42.9698 53.891 44.1741L55.512 44.8687C61.0239 47.2311 64.127 49.6394 64.127 55.058C64.127 60.8944 59.5418 64.09 53.3816 64.09C47.3606 64.09 43.4699 61.2184 41.571 57.4665" fill="black"/>
</svg>
