<svg width="53" height="70" viewBox="0 0 53 70" fill="none" xmlns="http://www.w3.org/2000/svg">
<path d="M17.5424 54.135C17.5424 54.135 14.8675 55.6905 19.4461 56.2169C24.9931 56.8496 27.828 56.759 33.9408 55.602C33.9408 55.602 35.548 56.6097 37.7923 57.4826C24.0892 63.3555 6.77917 57.1423 17.5424 54.135ZM15.8679 46.4711C15.8679 46.4711 12.8677 48.692 17.4498 49.1658C23.3752 49.7771 28.0545 49.8272 36.1518 48.268C36.1518 48.268 37.2718 49.4034 39.0328 50.0244C22.4648 54.8691 4.01103 50.4064 15.8679 46.4711Z" fill="#5382A1"/>
<path d="M29.9842 33.4707C33.3608 37.358 29.0971 40.8562 29.0971 40.8562C29.0971 40.8562 37.6704 36.4304 33.7331 30.888C30.0557 25.7198 27.2355 23.1515 42.5024 14.2975C42.5024 14.2975 18.5386 20.2827 29.9842 33.4707Z" fill="#E76F00"/>
<path d="M48.1078 59.8037C48.1078 59.8037 50.0873 61.4346 45.9276 62.6964C38.018 65.0927 13.0068 65.8162 6.05866 62.7919C3.5611 61.7056 8.24491 60.1977 9.71815 59.8811C11.2546 59.5479 12.1328 59.6101 12.1328 59.6101C9.35516 57.6533 -5.82072 63.4522 4.42429 65.1127C32.3636 69.6437 55.3548 63.0726 48.1078 59.8037ZM18.8286 38.5305C18.8286 38.5305 6.10649 41.5524 14.3235 42.6495C17.7929 43.114 24.7092 43.009 31.1516 42.4691C36.4167 42.0252 41.7035 41.0808 41.7035 41.0808C41.7035 41.0808 39.847 41.8759 38.5038 42.793C25.5845 46.1908 0.626772 44.6102 7.8118 41.1345C13.8882 38.1973 18.8286 38.5305 18.8286 38.5305ZM41.651 51.2873C54.7843 44.4628 48.712 37.9047 44.4736 38.7883C43.4347 39.0044 42.9716 39.1916 42.9716 39.1916C42.9716 39.1916 43.3573 38.5877 44.0938 38.3262C52.4785 35.3783 58.927 47.0204 41.3871 51.6312C41.3871 51.6314 41.5904 51.4498 41.651 51.2873Z" fill="#5382A1"/>
<path d="M33.7331 0.000202672C33.7331 0.000202672 41.0065 7.27623 26.8346 18.4641C15.4705 27.4389 24.2432 32.5561 26.83 38.4026C20.1964 32.4176 15.3282 27.1489 18.5943 22.2454C23.3878 15.047 36.6676 11.5573 33.7331 0.000202672Z" fill="#E76F00"/>
<path d="M20.1192 69.7799C32.7254 70.587 52.0835 69.3322 52.5419 63.3673C52.5419 63.3673 51.6607 65.6288 42.1236 67.4245C31.364 69.4492 18.0937 69.2129 10.2228 67.9151C10.223 67.9151 11.8339 69.2487 20.1192 69.7799Z" fill="#5382A1"/>
</svg>
