<svg width="39" height="45" viewBox="-2 -1 41 47" fill="none" xmlns="http://www.w3.org/2000/svg">
<path d="M21.8514 0.00100721C21.5117 0.0118691 21.1775 0.0900514 20.8682 0.231023C20.5589 0.371994 20.2806 0.572952 20.0496 0.822248L9.91344 11.6746L2.68728 19.4108C1.63674 20.5328 0.860792 21.8831 0.42043 23.3557C0.325419 23.672 0.247186 23.9931 0.186057 24.3176C-0.0964918 25.7848 -0.056827 27.2959 0.302306 28.7463C0.462922 29.4002 0.681924 30.0384 0.956674 30.6532C1.52838 31.9298 2.33703 33.0865 3.33977 34.0619L11.3591 41.9236L11.4322 41.9949C15.6471 46.0542 22.4046 45.9942 26.5501 41.8561L31.0426 37.3712C32.0551 36.3587 32.0551 34.72 31.0482 33.7056C30.5637 33.22 29.9063 32.9466 29.2203 32.9455C28.5344 32.9445 27.8761 33.2158 27.3901 33.7L22.8977 38.1849C21.8505 39.2192 20.4417 39.805 18.97 39.8183C17.4982 39.8316 16.0791 39.2713 15.0134 38.2562L14.9759 38.2206L6.95848 30.3588C5.73599 29.1588 5.136 27.6044 5.181 26.1157C5.19016 25.7856 5.23161 25.4571 5.30475 25.1351C5.49362 24.3184 5.89387 23.5658 6.46536 22.9526L13.6897 15.2146C15.6734 13.0884 19.6971 12.8334 21.9958 14.6933L28.5601 20.0014C29.672 20.9014 31.2994 20.727 32.1976 19.6133C32.6281 19.0783 32.829 18.3944 32.7562 17.7115C32.6835 17.0287 32.343 16.4025 31.8094 15.9702L25.247 10.6621C23.747 9.44902 21.9358 8.70278 20.0458 8.40841L23.8239 4.36221C24.1722 3.98774 24.402 3.51872 24.4846 3.01405C24.5672 2.50938 24.4988 1.99155 24.2881 1.52561C24.0774 1.05966 23.7337 0.666371 23.3001 0.395123C22.8666 0.123874 22.3626 -0.0132371 21.8514 0.00100721ZM16.4777 24.0289C16.1376 24.0289 15.8009 24.0959 15.4867 24.2262C15.1725 24.3564 14.8871 24.5474 14.6468 24.788C14.4065 25.0287 14.216 25.3144 14.0862 25.6287C13.9563 25.9431 13.8898 26.28 13.8903 26.6201C13.8898 26.9602 13.9563 27.297 14.0862 27.6114C14.216 27.9258 14.4065 28.2115 14.6468 28.4521C14.8871 28.6928 15.1725 28.8837 15.4867 29.014C15.8009 29.1442 16.1376 29.2113 16.4777 29.2113H35.5519C35.892 29.2113 36.2288 29.1442 36.5429 29.014C36.8571 28.8837 37.1425 28.6928 37.3828 28.4521C37.6232 28.2115 37.8137 27.9258 37.9435 27.6114C38.0733 27.297 38.1399 26.9602 38.1394 26.6201C38.1399 26.28 38.0733 25.9431 37.9435 25.6287C37.8137 25.3144 37.6232 25.0287 37.3828 24.788C37.1425 24.5474 36.8571 24.3564 36.5429 24.2262C36.2288 24.0959 35.892 24.0289 35.5519 24.0289H16.4777Z" fill="#CDDDDD"/>
</svg>
