<svg width="54" height="55" viewBox="0 0 54 55" fill="none" xmlns="http://www.w3.org/2000/svg">
<g filter="url(#filter0_d_13_20)">
<path d="M44.3714 0C45.7098 0 46.9933 0.546654 47.9397 1.5197C48.8861 2.49275 49.4178 3.81249 49.4178 5.18859V41.5088C49.4178 42.8849 48.8861 44.2046 47.9397 45.1776C46.9933 46.1507 45.7098 46.6973 44.3714 46.6973H9.04642C7.70803 46.6973 6.42445 46.1507 5.47806 45.1776C4.53167 44.2046 4 42.8849 4 41.5088V5.18859C4 3.81249 4.53167 2.49275 5.47806 1.5197C6.42445 0.546654 7.70803 0 9.04642 0H44.3714ZM43.1098 40.2116V26.4618C43.1098 24.2188 42.2431 22.0676 40.7005 20.4815C39.1579 18.8955 37.0657 18.0044 34.8841 18.0044C32.7394 18.0044 30.2414 19.3535 29.0302 21.377V18.4973H21.9905V40.2116H29.0302V27.4217C29.0302 25.4241 30.5946 23.7897 32.5375 23.7897C33.4744 23.7897 34.3729 24.1724 35.0354 24.8535C35.6978 25.5346 36.07 26.4584 36.07 27.4217V40.2116H43.1098ZM13.7901 14.4243C14.9143 14.4243 15.9925 13.9651 16.7875 13.1477C17.5824 12.3304 18.0291 11.2218 18.0291 10.0659C18.0291 7.65318 16.1366 5.68151 13.7901 5.68151C12.6591 5.68151 11.5745 6.14343 10.7748 6.96566C9.9751 7.78789 9.52583 8.90307 9.52583 10.0659C9.52583 12.4786 11.4435 14.4243 13.7901 14.4243ZM17.2973 40.2116V18.4973H10.308V40.2116H17.2973Z" fill="#CDDDDD"/>
</g>
<defs>
<filter id="filter0_d_13_20" x="0" y="0" width="53.4178" height="54.6973" filterUnits="userSpaceOnUse" color-interpolation-filters="sRGB">
<feFlood flood-opacity="0" result="BackgroundImageFix"/>
<feColorMatrix in="SourceAlpha" type="matrix" values="0 0 0 0 0 0 0 0 0 0 0 0 0 0 0 0 0 0 127 0" result="hardAlpha"/>
<feOffset dy="4"/>
<feGaussianBlur stdDeviation="2"/>
<feComposite in2="hardAlpha" operator="out"/>
<feColorMatrix type="matrix" values="0 0 0 0 0 0 0 0 0 0 0 0 0 0 0 0 0 0 0.25 0"/>
<feBlend mode="normal" in2="BackgroundImageFix" result="effect1_dropShadow_13_20"/>
<feBlend mode="normal" in="SourceGraphic" in2="effect1_dropShadow_13_20" result="shape"/>
</filter>
</defs>
</svg>
