<svg width="50" height="50" viewBox="0 0 50 50" fill="none" xmlns="http://www.w3.org/2000/svg">
<g clip-path="url(#clip0_194_2)">
<g filter="url(#filter0_d_194_2)">
<path d="M42.3714 2C43.7098 2 44.9933 2.54665 45.9397 3.5197C46.8861 4.49275 47.4178 5.81249 47.4178 7.18859V43.5088C47.4178 44.8849 46.8861 46.2046 45.9397 47.1776C44.9933 48.1507 43.7098 48.6973 42.3714 48.6973H7.04642C5.70803 48.6973 4.42445 48.1507 3.47806 47.1776C2.53167 46.2046 2 44.8849 2 43.5088V7.18859C2 5.81249 2.53167 4.49275 3.47806 3.5197C4.42445 2.54665 5.70803 2 7.04642 2H42.3714ZM41.1098 42.2116V28.4618C41.1098 26.2188 40.2431 24.0676 38.7005 22.4815C37.1579 20.8955 35.0657 20.0044 32.8841 20.0044C30.7394 20.0044 28.2414 21.3535 27.0302 23.377V20.4973H19.9905V42.2116H27.0302V29.4217C27.0302 27.4241 28.5946 25.7897 30.5375 25.7897C31.4744 25.7897 32.3729 26.1724 33.0354 26.8535C33.6978 27.5346 34.07 28.4584 34.07 29.4217V42.2116H41.1098ZM11.7901 16.4243C12.9143 16.4243 13.9925 15.9651 14.7875 15.1477C15.5824 14.3304 16.0291 13.2218 16.0291 12.0659C16.0291 9.65318 14.1366 7.68151 11.7901 7.68151C10.6591 7.68151 9.57449 8.14343 8.77479 8.96566C7.9751 9.78789 7.52583 10.9031 7.52583 12.0659C7.52583 14.4786 9.44347 16.4243 11.7901 16.4243ZM15.2973 42.2116V20.4973H8.30803V42.2116H15.2973Z" fill="#CDDDDD"/>
</g>
</g>
<defs>
<filter id="filter0_d_194_2" x="-2" y="2" width="53.4178" height="54.6973" filterUnits="userSpaceOnUse" color-interpolation-filters="sRGB">
<feFlood flood-opacity="0" result="BackgroundImageFix"/>
<feColorMatrix in="SourceAlpha" type="matrix" values="0 0 0 0 0 0 0 0 0 0 0 0 0 0 0 0 0 0 127 0" result="hardAlpha"/>
<feOffset dy="4"/>
<feGaussianBlur stdDeviation="2"/>
<feComposite in2="hardAlpha" operator="out"/>
<feColorMatrix type="matrix" values="0 0 0 0 0 0 0 0 0 0 0 0 0 0 0 0 0 0 0.25 0"/>
<feBlend mode="normal" in2="BackgroundImageFix" result="effect1_dropShadow_194_2"/>
<feBlend mode="normal" in="SourceGraphic" in2="effect1_dropShadow_194_2" result="shape"/>
</filter>
<clipPath id="clip0_194_2">
<rect width="50" height="50" fill="white"/>
</clipPath>
</defs>
</svg>
