<svg width="150" height="30" viewBox="0 0 150 30" fill="none" xmlns="http://www.w3.org/2000/svg">
<path d="M125.12 0.0124973V4.79636H114.838V29.9645H109.696V4.79665H99.2004V0.0124973H125.12ZM126.275 27.1114C126.638 27.1114 126.954 27.2416 127.223 27.5026C127.495 27.7633 127.63 28.0757 127.634 28.4396C127.633 28.6783 127.567 28.9122 127.442 29.1159C127.319 29.3166 127.148 29.4831 126.944 29.5998C126.742 29.7208 126.511 29.7837 126.275 29.7817C125.899 29.7817 125.579 29.6512 125.311 29.3905C125.042 29.1295 124.909 28.8136 124.913 28.4396C124.91 28.0757 125.042 27.7634 125.311 27.5026C125.579 27.2416 125.899 27.1114 126.275 27.1114ZM24.3774 29.9645L5.4204 6.40212V29.9523H0.279053V0H6.7053L30.6554 29.7405L30.6557 4.79665L30.6537 0.0124973H56.5726V4.79636H35.7968V12.4924H52.5048V17.2765H35.7968V25.1807H56.5729V29.9645H24.3774ZM73.0499 17.2309L76.4192 21.4199L69.5152 30H62.7681L73.0499 17.2309ZM69.5152 0.0249947L78.2139 10.8279L86.8853 0.0581271L93.6135 0.0479549L81.5824 15.0113L93.633 29.977H86.8853L62.7872 0.0249947H69.5152ZM135.05 17.1638H137.328V25.941C137.325 26.7475 137.15 27.4372 136.809 28.0176C136.464 28.5974 135.987 29.0403 135.374 29.3528C134.764 29.6614 134.05 29.8195 133.238 29.8195C132.496 29.8195 131.832 29.6858 131.239 29.4248C130.647 29.1638 130.177 28.7726 129.832 28.2576C129.483 27.7429 129.313 27.1009 129.313 26.3322H131.595C131.598 26.6684 131.675 26.9599 131.821 27.2041C131.965 27.4451 132.175 27.6393 132.427 27.7633C132.688 27.8941 132.988 27.9593 133.325 27.9592C133.692 27.9592 134.005 27.8836 134.259 27.729C134.513 27.5778 134.709 27.3513 134.845 27.0495C134.977 26.7507 135.047 26.3801 135.05 25.9407V17.1638ZM146.702 20.5962C146.646 20.0643 146.402 19.6487 145.977 19.3537C145.549 19.0549 144.995 18.9076 144.315 18.9076C143.839 18.9076 143.428 18.9797 143.086 19.1203C142.745 19.2645 142.48 19.4566 142.299 19.7004C142.118 19.944 142.027 20.2221 142.02 20.5346C142.02 20.7953 142.083 21.022 142.205 21.2106C142.331 21.4085 142.501 21.5743 142.703 21.6948C142.921 21.8323 143.155 21.9439 143.4 22.0276C143.657 22.1167 143.915 22.1923 144.173 22.2543L145.361 22.5461C145.838 22.6559 146.301 22.8033 146.744 22.9922C147.186 23.1776 147.587 23.4145 147.938 23.6993C148.29 23.9841 148.569 24.3274 148.774 24.729C148.98 25.1307 149.085 25.6009 149.085 26.1433C149.085 26.8742 148.896 27.5162 148.517 28.0722C148.137 28.625 147.59 29.0575 146.873 29.3699C146.158 29.6788 145.294 29.8367 144.277 29.8367C143.295 29.8367 142.438 29.6855 141.717 29.3836C140.993 29.0851 140.428 28.6453 140.02 28.0687C139.613 27.4921 139.394 26.7885 139.362 25.9613H141.62C141.651 26.3938 141.79 26.7542 142.027 27.046C142.267 27.3343 142.581 27.547 142.964 27.6912C143.351 27.8321 143.783 27.9042 144.26 27.9042C144.758 27.9042 145.197 27.8287 145.577 27.681C145.953 27.5334 146.249 27.3276 146.462 27.0596C146.677 26.7952 146.786 26.483 146.789 26.1261C146.786 25.8 146.688 25.5289 146.5 25.3158C146.308 25.1031 146.043 24.9246 145.705 24.7805C145.364 24.6363 144.967 24.5058 144.514 24.3928L143.072 24.0289C142.031 23.7644 141.205 23.363 140.602 22.8239C139.996 22.2851 139.697 21.5713 139.697 20.6752C139.697 19.9408 139.899 19.2953 140.306 18.7425C140.71 18.1903 141.264 17.761 141.965 17.4556C142.668 17.1466 143.462 16.9955 144.347 16.9955C145.246 16.9955 146.033 17.1466 146.712 17.4556C147.391 17.761 147.925 18.1865 148.311 18.7289C148.698 19.2715 148.9 19.8926 148.91 20.5962H146.702Z" fill="black"/>
</svg>
