<svg width="158" height="38" viewBox="0 0 158 38" fill="none" xmlns="http://www.w3.org/2000/svg">
<g filter="url(#filter0_d_164_9)">
<path d="M129.595 0.0124973V4.79636H119.313V29.9645H114.172V4.79665H103.676V0.0124973H129.595ZM130.751 27.1114C131.113 27.1114 131.43 27.2416 131.698 27.5026C131.97 27.7633 132.106 28.0757 132.11 28.4396C132.109 28.6783 132.042 28.9122 131.918 29.1159C131.795 29.3166 131.624 29.4831 131.42 29.5998C131.218 29.7208 130.986 29.7837 130.751 29.7817C130.374 29.7817 130.054 29.6512 129.786 29.3905C129.518 29.1295 129.385 28.8136 129.389 28.4396C129.385 28.0757 129.518 27.7634 129.786 27.5026C130.054 27.2416 130.374 27.1114 130.751 27.1114ZM28.8531 29.9645L9.89611 6.40212V29.9523H4.75476V0H11.181L35.1311 29.7405L35.1314 4.79665L35.1294 0.0124973H61.0483V4.79636H40.2725V12.4924H56.9805V17.2765H40.2725V25.1807H61.0486V29.9645H28.8531ZM77.5256 17.2309L80.8949 21.4199L73.9909 30H67.2438L77.5256 17.2309ZM73.9909 0.0249947L82.6896 10.8279L91.361 0.0581271L98.0892 0.0479549L86.0581 15.0113L98.1087 29.977H91.361L67.2629 0.0249947H73.9909ZM139.526 17.1638H141.804V25.941C141.801 26.7475 141.626 27.4372 141.285 28.0176C140.94 28.5974 140.462 29.0403 139.85 29.3528C139.24 29.6614 138.526 29.8195 137.714 29.8195C136.972 29.8195 136.307 29.6858 135.715 29.4248C135.123 29.1638 134.653 28.7726 134.308 28.2576C133.959 27.7429 133.788 27.1009 133.788 26.3322H136.07C136.074 26.6684 136.15 26.9599 136.296 27.2041C136.44 27.4451 136.651 27.6393 136.903 27.7633C137.164 27.8941 137.463 27.9593 137.801 27.9592C138.167 27.9592 138.481 27.8836 138.735 27.729C138.989 27.5778 139.184 27.3513 139.32 27.0495C139.452 26.7507 139.522 26.3801 139.526 25.9407V17.1638ZM151.177 20.5962C151.122 20.0643 150.878 19.6487 150.453 19.3537C150.024 19.0549 149.471 18.9076 148.791 18.9076C148.315 18.9076 147.903 18.9797 147.562 19.1203C147.221 19.2645 146.956 19.4566 146.774 19.7004C146.594 19.944 146.503 20.2221 146.496 20.5346C146.496 20.7953 146.559 21.022 146.68 21.2106C146.807 21.4085 146.977 21.5743 147.178 21.6948C147.397 21.8323 147.631 21.9439 147.875 22.0276C148.133 22.1167 148.391 22.1923 148.648 22.2543L149.836 22.5461C150.314 22.6559 150.777 22.8033 151.219 22.9922C151.662 23.1776 152.062 23.4145 152.414 23.6993C152.766 23.9841 153.045 24.3274 153.25 24.729C153.456 25.1307 153.56 25.6009 153.56 26.1433C153.56 26.8742 153.372 27.5162 152.992 28.0722C152.613 28.625 152.066 29.0575 151.348 29.3699C150.634 29.6788 149.77 29.8367 148.753 29.8367C147.771 29.8367 146.914 29.6855 146.193 29.3836C145.468 29.0851 144.904 28.6453 144.496 28.0687C144.088 27.4921 143.869 26.7885 143.838 25.9613H146.096C146.127 26.3938 146.266 26.7542 146.503 27.046C146.743 27.3343 147.057 27.547 147.44 27.6912C147.827 27.8321 148.258 27.9042 148.736 27.9042C149.234 27.9042 149.673 27.8287 150.052 27.681C150.429 27.5334 150.725 27.3276 150.937 27.0596C151.153 26.7952 151.261 26.483 151.265 26.1261C151.261 25.8 151.163 25.5289 150.975 25.3158C150.784 25.1031 150.519 24.9246 150.181 24.7805C149.84 24.6363 149.443 24.5058 148.99 24.3928L147.548 24.0289C146.506 23.7644 145.681 23.363 145.078 22.8239C144.472 22.2851 144.172 21.5713 144.172 20.6752C144.172 19.9408 144.374 19.2953 144.782 18.7425C145.186 18.1903 145.74 17.761 146.44 17.4556C147.144 17.1466 147.938 16.9955 148.823 16.9955C149.722 16.9955 150.509 17.1466 151.188 17.4556C151.867 17.761 152.4 18.1865 152.787 18.7289C153.173 19.2715 153.376 19.8926 153.386 20.5962H151.177Z" fill="black"/>
</g>
<defs>
<filter id="filter0_d_164_9" x="0.754761" y="0" width="156.805" height="38" filterUnits="userSpaceOnUse" color-interpolation-filters="sRGB">
<feFlood flood-opacity="0" result="BackgroundImageFix"/>
<feColorMatrix in="SourceAlpha" type="matrix" values="0 0 0 0 0 0 0 0 0 0 0 0 0 0 0 0 0 0 127 0" result="hardAlpha"/>
<feOffset dy="4"/>
<feGaussianBlur stdDeviation="2"/>
<feComposite in2="hardAlpha" operator="out"/>
<feColorMatrix type="matrix" values="0 0 0 0 0 0 0 0 0 0 0 0 0 0 0 0 0 0 0.25 0"/>
<feBlend mode="normal" in2="BackgroundImageFix" result="effect1_dropShadow_164_9"/>
<feBlend mode="normal" in="SourceGraphic" in2="effect1_dropShadow_164_9" result="shape"/>
</filter>
</defs>
</svg>
