<svg width="67" height="72" viewBox="0 0 67 72" fill="none" xmlns="http://www.w3.org/2000/svg">
<g filter="url(#filter0_d_9_12)">
<path d="M33.5 63.5786C32.5984 63.5786 31.76 63.344 30.977 62.938L22.9915 58.356C21.7919 57.718 22.393 57.486 22.7542 57.37C24.3729 56.848 24.6735 56.732 26.3555 55.8014C26.5347 55.6854 26.7773 55.7434 26.9565 55.8594L33.0808 59.4C33.3181 59.516 33.6213 59.516 33.8005 59.4L57.7572 45.9967C57.9945 45.8807 58.1157 45.6487 58.1157 45.3587V18.6102C58.1157 18.3202 57.9971 18.0882 57.7572 17.9722L33.8005 4.62958C33.5606 4.51358 33.2601 4.51358 33.0808 4.62958L9.12418 17.9722C8.88427 18.0882 8.763 18.3782 8.763 18.6102V45.3587C8.763 45.5907 8.88427 45.8807 9.12418 45.9967L15.6676 49.6534C19.2109 51.3934 21.4307 49.3634 21.4307 47.3334V20.9328C21.4307 20.5848 21.7313 20.2368 22.1531 20.2368H25.2139C25.5751 20.2368 25.9336 20.5268 25.9336 20.9328V47.3307C25.9336 51.9154 23.3526 54.5834 18.8497 54.5834C17.4683 54.5834 16.3874 54.5834 13.3265 53.1334L7.023 49.6534C6.26396 49.235 5.63011 48.622 5.18666 47.8774C4.74321 47.1327 4.5062 46.2834 4.5 45.4167V18.6682C4.5 16.9282 5.45964 15.3042 7.023 14.4342L30.9796 1.02831C31.7599 0.629376 32.6237 0.421356 33.5 0.421356C34.3763 0.421356 35.2401 0.629376 36.0204 1.02831L59.9796 14.4316C61.5404 15.3016 62.5 16.9256 62.5 18.6656V45.4141C62.5 47.1541 61.5404 48.7781 59.9796 49.6507L36.023 63.0514C35.2267 63.3966 34.3679 63.5742 33.5 63.5734M40.8845 45.1795C30.3785 45.1795 28.2167 40.5395 28.2167 36.5928C28.2167 36.2448 28.5173 35.8968 28.9365 35.8968H32.0579C32.4191 35.8968 32.717 36.1288 32.717 36.4768C33.1995 39.5508 34.5809 41.0588 40.9451 41.0588C45.9885 41.0588 48.1503 39.9568 48.1503 37.3468C48.1503 35.8388 47.5492 34.7368 39.6849 33.9828C33.1388 33.3422 29.0577 31.9528 29.0577 26.9042C29.0577 22.2036 33.1388 19.4169 39.9855 19.4169C47.6705 19.4169 51.4536 21.9716 51.9335 27.5422C51.9276 27.7307 51.8641 27.9129 51.7515 28.0642C51.6329 28.1802 51.4536 28.2962 51.2717 28.2962H48.1503C47.9986 28.2925 47.8523 28.2396 47.7334 28.1454C47.6145 28.0513 47.5295 27.921 47.4912 27.7742C46.7688 24.5842 44.9075 23.5376 39.9855 23.5376C34.4596 23.5376 33.8005 25.3936 33.8005 26.7882C33.8005 28.4702 34.5809 28.9922 42.026 29.9202C49.4105 30.8482 52.8931 32.1822 52.8931 37.1702C52.8325 42.2795 48.5115 45.1795 40.8845 45.1795Z" fill="#508A46"/>
</g>
<defs>
<filter id="filter0_d_9_12" x="0.5" y="0.421356" width="66" height="71.1573" filterUnits="userSpaceOnUse" color-interpolation-filters="sRGB">
<feFlood flood-opacity="0" result="BackgroundImageFix"/>
<feColorMatrix in="SourceAlpha" type="matrix" values="0 0 0 0 0 0 0 0 0 0 0 0 0 0 0 0 0 0 127 0" result="hardAlpha"/>
<feOffset dy="4"/>
<feGaussianBlur stdDeviation="2"/>
<feComposite in2="hardAlpha" operator="out"/>
<feColorMatrix type="matrix" values="0 0 0 0 0 0 0 0 0 0 0 0 0 0 0 0 0 0 0.25 0"/>
<feBlend mode="normal" in2="BackgroundImageFix" result="effect1_dropShadow_9_12"/>
<feBlend mode="normal" in="SourceGraphic" in2="effect1_dropShadow_9_12" result="shape"/>
</filter>
</defs>
</svg>
