<svg width="59" height="64" viewBox="0 0 59 64" fill="none" xmlns="http://www.w3.org/2000/svg">
<path d="M29.5 63.5786C28.5984 63.5786 27.76 63.344 26.977 62.938L18.9915 58.356C17.7919 57.718 18.393 57.486 18.7542 57.37C20.3729 56.848 20.6735 56.732 22.3555 55.8014C22.5347 55.6854 22.7773 55.7434 22.9565 55.8594L29.0808 59.4C29.3181 59.516 29.6213 59.516 29.8005 59.4L53.7572 45.9967C53.9945 45.8807 54.1157 45.6487 54.1157 45.3587V18.6102C54.1157 18.3202 53.9971 18.0882 53.7572 17.9722L29.8005 4.62958C29.5606 4.51358 29.2601 4.51358 29.0808 4.62958L5.12418 17.9722C4.88427 18.0882 4.763 18.3782 4.763 18.6102V45.3587C4.763 45.5907 4.88427 45.8807 5.12418 45.9967L11.6676 49.6534C15.2109 51.3934 17.4307 49.3634 17.4307 47.3334V20.9328C17.4307 20.5848 17.7313 20.2368 18.1531 20.2368H21.2139C21.5751 20.2368 21.9336 20.5268 21.9336 20.9328V47.3307C21.9336 51.9154 19.3526 54.5834 14.8497 54.5834C13.4683 54.5834 12.3874 54.5834 9.32655 53.1334L3.023 49.6534C2.26396 49.235 1.63011 48.622 1.18666 47.8774C0.743214 47.1327 0.506197 46.2834 0.5 45.4167V18.6682C0.5 16.9282 1.45964 15.3042 3.023 14.4342L26.9796 1.02831C27.7599 0.629376 28.6237 0.421356 29.5 0.421356C30.3763 0.421356 31.2401 0.629376 32.0204 1.02831L55.9796 14.4316C57.5404 15.3016 58.5 16.9256 58.5 18.6656V45.4141C58.5 47.1541 57.5404 48.7781 55.9796 49.6507L32.023 63.0514C31.2267 63.3966 30.3679 63.5742 29.5 63.5734M36.8845 45.1795C26.3785 45.1795 24.2167 40.5395 24.2167 36.5928C24.2167 36.2448 24.5173 35.8968 24.9365 35.8968H28.0579C28.4191 35.8968 28.717 36.1288 28.717 36.4768C29.1995 39.5508 30.5809 41.0588 36.9451 41.0588C41.9885 41.0588 44.1503 39.9568 44.1503 37.3468C44.1503 35.8388 43.5492 34.7368 35.6849 33.9828C29.1388 33.3422 25.0577 31.9528 25.0577 26.9042C25.0577 22.2036 29.1388 19.4169 35.9855 19.4169C43.6705 19.4169 47.4536 21.9716 47.9335 27.5422C47.9276 27.7307 47.8641 27.9129 47.7515 28.0642C47.6329 28.1802 47.4536 28.2962 47.2717 28.2962H44.1503C43.9986 28.2925 43.8523 28.2396 43.7334 28.1454C43.6145 28.0513 43.5295 27.921 43.4912 27.7742C42.7688 24.5842 40.9075 23.5376 35.9855 23.5376C30.4596 23.5376 29.8005 25.3936 29.8005 26.7882C29.8005 28.4702 30.5809 28.9922 38.026 29.9202C45.4105 30.8482 48.8931 32.1822 48.8931 37.1702C48.8325 42.2795 44.5115 45.1795 36.8845 45.1795Z" fill="#508A46"/>
</svg>
