<svg width="61" height="60" viewBox="0 0 61 60" fill="none" xmlns="http://www.w3.org/2000/svg">
<path d="M30.5899 0C15.2785 0 16.2345 6.63993 16.2345 6.63993L16.2515 13.5191H30.8629V15.5844H10.4481C10.4481 15.5844 0.65036 14.4732 0.65036 29.9223C0.65036 45.3719 9.20209 44.8239 9.20209 44.8239H14.3057V37.6548C14.3057 37.6548 14.0306 29.103 22.7209 29.103H37.2128C37.2128 29.103 45.3548 29.2346 45.3548 21.2341V8.0057C45.3548 8.0057 46.5914 0 30.5899 0ZM22.5332 4.6261C22.8785 4.62579 23.2204 4.69357 23.5395 4.82556C23.8585 4.95755 24.1484 5.15115 24.3926 5.3953C24.6367 5.63945 24.8303 5.92935 24.9623 6.2484C25.0943 6.56745 25.1621 6.9094 25.1618 7.25468C25.1621 7.59996 25.0943 7.94191 24.9623 8.26096C24.8303 8.58001 24.6367 8.86991 24.3926 9.11406C24.1484 9.3582 23.8585 9.55181 23.5395 9.6838C23.2204 9.81579 22.8785 9.88357 22.5332 9.88326C22.1879 9.88357 21.846 9.81579 21.5269 9.6838C21.2079 9.55181 20.918 9.3582 20.6738 9.11406C20.4297 8.86991 20.2361 8.58001 20.1041 8.26096C19.9721 7.94191 19.9043 7.59996 19.9046 7.25468C19.9043 6.9094 19.9721 6.56745 20.1041 6.2484C20.2361 5.92935 20.4297 5.63945 20.6738 5.3953C20.918 5.15115 21.2079 4.95755 21.5269 4.82556C21.846 4.69357 22.1879 4.62579 22.5332 4.6261Z" fill="url(#paint0_linear_166_5)"/>
<path d="M31.0247 60.0001C46.3361 60.0001 45.3801 53.3601 45.3801 53.3601L45.3631 46.4812H30.7514V44.4159H51.1662C51.1662 44.4159 60.964 45.5271 60.964 30.0775C60.964 14.6282 52.4123 15.1761 52.4123 15.1761H47.3086V22.3451C47.3086 22.3451 47.5838 30.8968 38.8934 30.8968H24.4015C24.4015 30.8968 16.2596 30.7652 16.2596 38.766V51.9946C16.2596 51.9946 15.0232 60.0001 31.0245 60.0001M39.0812 55.3744C38.7359 55.3747 38.3939 55.307 38.0749 55.175C37.7558 55.043 37.4659 54.8494 37.2218 54.6052C36.9776 54.3611 36.784 54.0712 36.6521 53.7521C36.5201 53.4331 36.4523 53.0911 36.4526 52.7458C36.4523 52.4005 36.52 52.0586 36.652 51.7395C36.784 51.4204 36.9776 51.1305 37.2217 50.8863C37.4659 50.6421 37.7558 50.4485 38.0748 50.3165C38.3939 50.1845 38.7359 50.1167 39.0812 50.117C39.4264 50.1167 39.7684 50.1845 40.0875 50.3165C40.4065 50.4485 40.6964 50.6421 40.9405 50.8862C41.1847 51.1304 41.3783 51.4203 41.5103 51.7393C41.6423 52.0584 41.7101 52.4003 41.7097 52.7456C41.7101 53.0909 41.6423 53.4328 41.5103 53.7519C41.3783 54.0709 41.1847 54.3608 40.9405 54.605C40.6964 54.8491 40.4065 55.0427 40.0875 55.1747C39.7684 55.3067 39.4264 55.3747 39.0812 55.3744Z" fill="url(#paint1_linear_166_5)"/>
<defs>
<linearGradient id="paint0_linear_166_5" x1="580.262" y1="539.664" x2="3569.22" y2="3498.81" gradientUnits="userSpaceOnUse">
<stop stop-color="#387EB8"/>
<stop offset="1" stop-color="#366994"/>
</linearGradient>
<linearGradient id="paint1_linear_166_5" x1="871.768" y1="937.655" x2="4081.57" y2="3971.98" gradientUnits="userSpaceOnUse">
<stop stop-color="#FFE052"/>
<stop offset="1" stop-color="#FFC331"/>
</linearGradient>
</defs>
</svg>
