<svg width="61" height="60" viewBox="0 0 61 60" fill="none" xmlns="http://www.w3.org/2000/svg">
<path d="M30.2225 0C14.9111 0 15.8671 6.63993 15.8671 6.63993L15.8841 13.5191H30.4955V15.5844H10.0807C10.0807 15.5844 0.282928 14.4732 0.282928 29.9223C0.282928 45.3719 8.83466 44.8239 8.83466 44.8239H13.9383V37.6548C13.9383 37.6548 13.6632 29.103 22.3535 29.103H36.8454C36.8454 29.103 44.9874 29.2346 44.9874 21.2341V8.0057C44.9874 8.0057 46.224 0 30.2225 0ZM22.1658 4.6261C22.511 4.62579 22.853 4.69357 23.172 4.82556C23.4911 4.95755 23.781 5.15116 24.0251 5.3953C24.2693 5.63945 24.4629 5.92935 24.5949 6.2484C24.7269 6.56745 24.7946 6.9094 24.7943 7.25468C24.7946 7.59996 24.7269 7.94191 24.5949 8.26096C24.4629 8.58001 24.2693 8.86991 24.0251 9.11406C23.781 9.3582 23.4911 9.55181 23.172 9.6838C22.853 9.81579 22.511 9.88357 22.1658 9.88325C21.8205 9.88357 21.4785 9.81579 21.1595 9.6838C20.8404 9.55181 20.5505 9.3582 20.3064 9.11406C20.0622 8.86991 19.8686 8.58001 19.7366 8.26096C19.6047 7.94191 19.5369 7.59996 19.5372 7.25468C19.5369 6.9094 19.6047 6.56745 19.7366 6.2484C19.8686 5.92935 20.0622 5.63945 20.3064 5.3953C20.5505 5.15116 20.8404 4.95755 21.1595 4.82556C21.4785 4.69357 21.8205 4.62579 22.1658 4.6261Z" fill="url(#paint0_linear_166_5)"/>
<path d="M30.6573 60.0001C45.9687 60.0001 45.0126 53.3601 45.0126 53.3601L44.9956 46.4812H30.384V44.4159H50.7988C50.7988 44.4159 60.5966 45.5271 60.5966 30.0775C60.5966 14.6282 52.0448 15.1761 52.0448 15.1761H46.9412V22.3451C46.9412 22.3451 47.2163 30.8968 38.526 30.8968H24.0341C24.0341 30.8968 15.8921 30.7652 15.8921 38.766V51.9946C15.8921 51.9946 14.6558 60.0001 30.657 60.0001M38.7137 55.3744C38.3685 55.3747 38.0265 55.307 37.7075 55.175C37.3884 55.043 37.0985 54.8494 36.8544 54.6052C36.6102 54.3611 36.4166 54.0712 36.2846 53.7521C36.1526 53.4331 36.0849 53.0911 36.0852 52.7458C36.0848 52.4005 36.1526 52.0586 36.2846 51.7395C36.4165 51.4204 36.6101 51.1305 36.8543 50.8863C37.0984 50.6421 37.3883 50.4485 37.7074 50.3165C38.0265 50.1845 38.3684 50.1167 38.7137 50.117C39.059 50.1167 39.401 50.1845 39.72 50.3165C40.0391 50.4485 40.329 50.6421 40.5731 50.8862C40.8173 51.1304 41.0109 51.4203 41.1429 51.7393C41.2749 52.0584 41.3426 52.4003 41.3423 52.7456C41.3426 53.0909 41.2749 53.4328 41.1429 53.7519C41.0109 54.0709 40.8173 54.3608 40.5731 54.605C40.329 54.8491 40.0391 55.0427 39.72 55.1747C39.401 55.3067 39.059 55.3747 38.7137 55.3744Z" fill="url(#paint1_linear_166_5)"/>
<defs>
<linearGradient id="paint0_linear_166_5" x1="579.895" y1="539.664" x2="3568.86" y2="3498.81" gradientUnits="userSpaceOnUse">
<stop stop-color="#387EB8"/>
<stop offset="1" stop-color="#366994"/>
</linearGradient>
<linearGradient id="paint1_linear_166_5" x1="871.4" y1="937.655" x2="4081.2" y2="3971.98" gradientUnits="userSpaceOnUse">
<stop stop-color="#FFE052"/>
<stop offset="1" stop-color="#FFC331"/>
</linearGradient>
</defs>
</svg>
