<svg width="55" height="66" viewBox="0 0 55 66" fill="none" xmlns="http://www.w3.org/2000/svg">
<g filter="url(#filter0_d_9_6)">
<path d="M27.4999 25.6631C29.8208 25.6631 31.7023 23.7816 31.7023 21.4607C31.7023 19.1398 29.8208 17.2584 27.4999 17.2584C25.179 17.2584 23.2976 19.1398 23.2976 21.4607C23.2976 23.7816 25.179 25.6631 27.4999 25.6631Z" fill="#61DAFB"/>
<path d="M27.5 36.9144C30.7986 40.1226 34.0521 42.0205 36.6729 42.0205C37.5314 42.0205 38.3448 41.8397 39.0226 41.4331C41.3723 40.0775 42.2308 36.6885 41.4175 31.8535C41.2819 30.9949 41.1012 30.1364 40.8752 29.2327C41.779 28.9615 42.5923 28.6904 43.4057 28.4193C47.9695 26.657 50.5 24.2169 50.5 21.5509C50.5 18.8397 47.9695 16.3997 43.4057 14.6826C42.5923 14.3663 41.779 14.0951 40.8752 13.8692C41.1012 12.9655 41.2819 12.1069 41.4175 11.2484C42.1857 6.32304 41.3271 2.88886 38.9774 1.53326C38.2996 1.12658 37.4862 0.945831 36.6277 0.945831C34.0521 0.945831 30.7534 2.84367 27.4548 6.05192C24.2014 2.84367 20.9479 0.945831 18.3271 0.945831C17.4686 0.945831 16.6552 1.12658 15.9774 1.53326C13.6277 2.88886 12.7692 6.27785 13.5825 11.1128C13.7181 11.9714 13.8988 12.8299 14.1248 13.7336C13.221 14.0048 12.4077 14.2759 11.5943 14.547C7.03045 16.3093 4.5 18.7494 4.5 21.4154C4.5 24.1266 7.03045 26.5667 11.5943 28.2837C12.4077 28.6 13.221 28.8712 14.1248 29.0971C13.8988 30.0008 13.7181 30.8594 13.5825 31.7179C12.8143 36.5529 13.6729 39.9871 15.9774 41.2975C16.6552 41.7042 17.4686 41.8849 18.3271 41.8849C20.9479 41.9753 24.2014 40.0775 27.5 36.9144ZM24.9695 30.8142C25.7829 30.8594 26.6415 30.8594 27.5 30.8594C28.3585 30.8594 29.2171 30.8594 30.0305 30.8142C29.2171 31.8987 28.3585 32.8928 27.5 33.8417C26.6415 32.8928 25.7829 31.8987 24.9695 30.8142ZM19.3664 26.16C19.8183 26.9281 20.225 27.6511 20.722 28.3741C19.3212 28.1934 18.0108 27.9674 16.7456 27.6963C17.1523 26.4763 17.6041 25.2111 18.1464 23.9458C18.5079 24.6688 18.9145 25.437 19.3664 26.16ZM16.7456 15.27C18.0108 14.9989 19.3212 14.7729 20.722 14.5922C20.2701 15.3152 19.8183 16.0382 19.3664 16.8063C18.9145 17.5745 18.5079 18.2975 18.1464 19.0657C17.5589 17.7553 17.1071 16.49 16.7456 15.27ZM19.2308 21.4606C19.8183 20.2405 20.4509 19.0205 21.1739 17.8004C21.8517 16.6256 22.6198 15.4507 23.388 14.2759C24.7436 14.1855 26.0992 14.1403 27.5 14.1403C28.946 14.1403 30.3016 14.1855 31.612 14.2759C32.4253 15.4507 33.1483 16.6256 33.8261 17.8004C34.5491 19.0205 35.1817 20.2405 35.7692 21.4606C35.1817 22.6806 34.5491 23.9006 33.8261 25.1207C33.1483 26.2955 32.3802 27.4704 31.612 28.6452C30.2564 28.7356 28.9008 28.7808 27.5 28.7808C26.054 28.7808 24.6984 28.7356 23.388 28.6452C22.5747 27.4704 21.8517 26.2955 21.1739 25.1207C20.4509 23.9006 19.8183 22.6806 19.2308 21.4606ZM36.8988 19.0205L35.6788 16.7612C35.2269 15.993 34.8202 15.27 34.3232 14.547C35.724 14.7278 37.0344 14.9537 38.2996 15.2248C37.8929 16.49 37.4411 17.7553 36.8988 19.0205ZM36.8988 23.9006C37.4411 25.1659 37.8929 26.4311 38.2996 27.6511C37.0344 27.9223 35.724 28.1482 34.3232 28.3289C34.775 27.6059 35.2269 26.883 35.6788 26.1148C36.0855 25.437 36.4921 24.6688 36.8988 23.9006ZM37.9381 39.5804C37.5766 39.8063 37.1248 39.8967 36.6277 39.8967C34.4136 39.8967 31.6572 38.0892 28.946 35.378C30.2564 33.9773 31.5216 32.3957 32.7868 30.6335C34.9106 30.4527 36.944 30.1364 38.8418 29.6845C39.0678 30.4979 39.2033 31.3112 39.3389 32.1246C39.9715 35.9655 39.4745 38.7219 37.9381 39.5804ZM40.2878 15.767C45.3487 17.213 48.3762 19.4272 48.3762 21.4606C48.3762 23.2228 46.2976 24.9851 42.6375 26.3859C41.9145 26.657 41.1012 26.9281 40.2878 27.1541C39.7004 25.3014 38.9774 23.4036 38.0737 21.4606C38.9774 19.5175 39.7456 17.6197 40.2878 15.767ZM36.6729 3.02442C37.1699 3.02442 37.5766 3.11479 37.9833 3.34072C39.4745 4.19927 40.0167 6.91047 39.3841 10.7965C39.2485 11.5647 39.0678 12.378 38.887 13.2366C36.9892 12.8299 34.9558 12.5136 32.832 12.2877C31.612 10.5254 30.3016 8.94387 28.9912 7.54308C31.7024 4.87707 34.4587 3.02442 36.6729 3.02442ZM30.0305 12.1069C29.2171 12.0617 28.3585 12.0617 27.5 12.0617C26.6415 12.0617 25.7829 12.0617 24.9695 12.1069C25.7829 11.0224 26.6415 10.0283 27.5 9.07942C28.3585 10.0283 29.2171 11.0676 30.0305 12.1069ZM17.0619 3.34072C17.4234 3.11479 17.8752 3.02442 18.3723 3.02442C20.5864 3.02442 23.3428 4.83188 26.054 7.54308C24.7436 8.94387 23.4784 10.5254 22.2132 12.2877C20.0894 12.4684 18.056 12.7847 16.1582 13.2366C15.9322 12.4232 15.7967 11.6099 15.6611 10.7965C15.0285 6.95565 15.5255 4.24446 17.0619 3.34072ZM14.7122 27.1541C9.65128 25.7081 6.62377 23.494 6.62377 21.4606C6.62377 19.6983 8.70236 17.936 12.3625 16.5352C13.0855 16.2641 13.8988 15.993 14.7122 15.767C15.2996 17.6197 16.0226 19.5175 16.9263 21.4606C16.0226 23.4036 15.2544 25.3466 14.7122 27.1541ZM15.6611 32.1246C15.7967 31.3564 15.9774 30.5431 16.1582 29.6845C18.056 30.0912 20.0894 30.4075 22.2132 30.6335C23.4332 32.3957 24.7436 33.9773 26.054 35.378C23.3428 38.0441 20.5864 39.8967 18.3723 39.8967C17.8752 39.8967 17.4686 39.8063 17.0619 39.5804C15.5255 38.7219 15.0285 35.9655 15.6611 32.1246ZM13.7633 50.7415C14.7574 49.5215 14.8026 48.1659 14.2603 46.8103C13.7181 45.4547 12.5884 44.8221 11.1876 44.7769C9.51572 44.7317 7.79862 44.7769 6.12672 44.7769H5.81041V56.4802H7.16601V52.0519H9.28978C9.5609 52.0519 9.78684 52.1423 9.9224 52.3682L12.6336 56.5706C12.6788 56.6609 12.8143 56.7965 12.9047 56.7965H14.667C13.5825 55.1246 12.5432 53.5431 11.4587 51.9164C12.4077 51.7808 13.221 51.4645 13.7633 50.7415ZM7.16601 50.6511V46.1777H7.66306C8.70236 46.1777 9.78684 46.1325 10.8261 46.2228C12.0462 46.268 12.9047 47.2169 12.9047 48.437C12.9047 49.657 11.9106 50.6059 10.6906 50.6511C9.60609 50.6963 8.52161 50.6511 7.16601 50.6511ZM24.6532 51.2386C23.9303 48.0755 21.0383 47.2621 18.8242 48.2562C17.1071 49.0244 16.3389 50.5156 16.2937 52.3682C16.2485 53.769 16.6552 55.0342 17.7397 55.9832C18.9597 57.0676 20.4509 57.2032 21.9872 56.9321C22.8458 56.7513 23.6139 56.3446 24.2014 55.712C23.9754 55.3957 23.7495 55.0794 23.5236 54.8083C22.2583 55.8928 20.8576 56.2543 19.3212 55.5313C18.3271 55.0342 17.8301 53.8142 17.7397 52.9105H24.7436V52.323C24.7888 51.9164 24.7436 51.5549 24.6532 51.2386ZM17.8301 51.9615C17.6945 50.6059 19.0501 49.16 20.5413 49.16C22.2583 49.1148 23.3428 50.1541 23.388 51.9615H17.8301ZM31.7024 48.0303C31.0246 47.8947 30.3016 47.8496 29.6238 47.8947C28.5393 47.9851 27.5904 48.4822 26.8222 49.2955C27.0481 49.6118 27.2289 49.9281 27.5 50.2896C27.5904 50.1993 27.6807 50.1089 27.7711 50.0637C28.4941 49.3859 29.3527 49.0244 30.3919 49.1148C31.2053 49.16 31.9735 49.4311 32.1994 50.2444C32.3802 50.8771 32.335 51.5549 32.3802 52.2327C32.2446 52.2327 32.1994 52.1875 32.1542 52.1423C31.0697 51.2386 29.8497 51.0578 28.5393 51.3741C27.3193 51.6904 26.5511 52.6393 26.4607 53.8594C26.3703 55.2602 27.0029 56.2995 28.223 56.7965C28.9912 57.1128 29.8497 57.1128 30.6631 56.9321C31.2957 56.7965 31.5668 56.435 32.4705 55.938V56.5254H33.7358C33.7358 54.7179 33.7809 52.5038 33.7358 50.4252C33.7358 49.1148 32.9676 48.3014 31.7024 48.0303ZM32.335 53.7238C32.2898 53.8594 32.335 53.9949 32.335 54.1305C32.335 55.0794 32.109 55.3957 31.2053 55.7572C30.5727 55.9832 29.8949 56.0735 29.2171 55.8476C28.4489 55.6217 27.9067 54.9439 27.9067 54.1757C27.8615 53.4075 28.3585 52.6393 29.1267 52.4134C30.166 52.0519 31.1149 52.2778 31.9735 52.9105C32.2446 53.1364 32.4253 53.3623 32.335 53.7238ZM39.3841 49.2503C40.5589 48.8889 41.6434 49.1148 42.4568 50.1089L42.5923 50.1993C42.9086 49.9281 43.1798 49.657 43.5413 49.3407C43.4057 49.2052 43.3605 49.1148 43.2701 48.9792C41.9597 47.5784 39.3841 47.3977 37.8026 48.5274C35.5884 50.1541 35.6336 53.3171 36.7181 54.989C37.7574 56.5706 39.2485 57.1128 41.0108 56.8869C42.0501 56.7513 42.9086 56.2543 43.5864 55.3957C43.2701 55.1246 42.9538 54.8535 42.6375 54.5372C42.5471 54.6276 42.502 54.6727 42.4568 54.7631C41.2367 56.1187 39.2033 55.9832 38.1189 54.5372C37.4862 53.6786 37.3507 52.6845 37.5314 51.6904C37.6218 50.5608 38.2092 49.657 39.3841 49.2503ZM48.7829 55.3957C48.6925 55.4409 48.6473 55.4861 48.6473 55.4861C48.2859 55.7572 47.9244 55.8024 47.5177 55.6668C47.111 55.4861 47.0658 55.1246 47.0206 54.7631V49.6118C47.0206 49.5215 47.0206 49.7022 47.0658 49.2503H48.7829V47.8947H46.9754V45.6354H45.6198V48.0755H44.445C44.3546 48.0755 44.2191 48.1659 44.2191 48.2562C44.1739 48.5725 44.2191 48.7985 44.2191 49.2503H45.665V55.0342C45.665 55.7572 45.8458 56.3898 46.4784 56.7513C47.1562 57.158 48.4666 57.0676 49.054 56.5706C49.1444 56.5254 49.1896 56.3446 49.1896 56.2995C49.054 56.0283 48.9185 55.712 48.7829 55.3957Z" fill="#61DAFB"/>
</g>
<defs>
<filter id="filter0_d_9_6" x="0.5" y="0.945831" width="54" height="64.1084" filterUnits="userSpaceOnUse" color-interpolation-filters="sRGB">
<feFlood flood-opacity="0" result="BackgroundImageFix"/>
<feColorMatrix in="SourceAlpha" type="matrix" values="0 0 0 0 0 0 0 0 0 0 0 0 0 0 0 0 0 0 127 0" result="hardAlpha"/>
<feOffset dy="4"/>
<feGaussianBlur stdDeviation="2"/>
<feComposite in2="hardAlpha" operator="out"/>
<feColorMatrix type="matrix" values="0 0 0 0 0 0 0 0 0 0 0 0 0 0 0 0 0 0 0.25 0"/>
<feBlend mode="normal" in2="BackgroundImageFix" result="effect1_dropShadow_9_6"/>
<feBlend mode="normal" in="SourceGraphic" in2="effect1_dropShadow_9_6" result="shape"/>
</filter>
</defs>
</svg>
