<svg width="47" height="58" viewBox="0 0 47 58" fill="none" xmlns="http://www.w3.org/2000/svg">
<path d="M23.4999 25.6631C25.8208 25.6631 27.7023 23.7816 27.7023 21.4607C27.7023 19.1398 25.8208 17.2584 23.4999 17.2584C21.179 17.2584 19.2976 19.1398 19.2976 21.4607C19.2976 23.7816 21.179 25.6631 23.4999 25.6631Z" fill="#61DAFB"/>
<path d="M23.5 36.9144C26.7986 40.1226 30.0521 42.0205 32.6729 42.0205C33.5314 42.0205 34.3448 41.8397 35.0226 41.4331C37.3723 40.0775 38.2308 36.6885 37.4175 31.8535C37.2819 30.9949 37.1012 30.1364 36.8752 29.2327C37.779 28.9615 38.5923 28.6904 39.4057 28.4193C43.9695 26.657 46.5 24.2169 46.5 21.5509C46.5 18.8397 43.9695 16.3997 39.4057 14.6826C38.5923 14.3663 37.779 14.0951 36.8752 13.8692C37.1012 12.9655 37.2819 12.1069 37.4175 11.2484C38.1857 6.32304 37.3271 2.88886 34.9774 1.53326C34.2996 1.12658 33.4862 0.945831 32.6277 0.945831C30.0521 0.945831 26.7534 2.84367 23.4548 6.05192C20.2014 2.84367 16.9479 0.945831 14.3271 0.945831C13.4686 0.945831 12.6552 1.12658 11.9774 1.53326C9.6277 2.88886 8.76916 6.27785 9.58251 11.1128C9.71807 11.9714 9.89882 12.8299 10.1248 13.7336C9.22102 14.0048 8.40766 14.2759 7.5943 14.547C3.03045 16.3093 0.5 18.7494 0.5 21.4154C0.5 24.1266 3.03045 26.5667 7.5943 28.2837C8.40766 28.6 9.22102 28.8712 10.1248 29.0971C9.89882 30.0008 9.71807 30.8594 9.58251 31.7179C8.81434 36.5529 9.67289 39.9871 11.9774 41.2975C12.6552 41.7042 13.4686 41.8849 14.3271 41.8849C16.9479 41.9753 20.2014 40.0775 23.5 36.9144ZM20.9695 30.8142C21.7829 30.8594 22.6415 30.8594 23.5 30.8594C24.3585 30.8594 25.2171 30.8594 26.0305 30.8142C25.2171 31.8987 24.3585 32.8928 23.5 33.8417C22.6415 32.8928 21.7829 31.8987 20.9695 30.8142ZM15.3664 26.16C15.8183 26.9281 16.225 27.6511 16.722 28.3741C15.3212 28.1934 14.0108 27.9674 12.7456 27.6963C13.1523 26.4763 13.6041 25.2111 14.1464 23.9458C14.5079 24.6688 14.9145 25.437 15.3664 26.16ZM12.7456 15.27C14.0108 14.9989 15.3212 14.7729 16.722 14.5922C16.2701 15.3152 15.8183 16.0382 15.3664 16.8063C14.9145 17.5745 14.5079 18.2975 14.1464 19.0657C13.5589 17.7553 13.1071 16.49 12.7456 15.27ZM15.2308 21.4606C15.8183 20.2405 16.4509 19.0205 17.1739 17.8004C17.8517 16.6256 18.6198 15.4507 19.388 14.2759C20.7436 14.1855 22.0992 14.1403 23.5 14.1403C24.946 14.1403 26.3016 14.1855 27.612 14.2759C28.4253 15.4507 29.1483 16.6256 29.8261 17.8004C30.5491 19.0205 31.1817 20.2405 31.7692 21.4606C31.1817 22.6806 30.5491 23.9006 29.8261 25.1207C29.1483 26.2955 28.3802 27.4704 27.612 28.6452C26.2564 28.7356 24.9008 28.7808 23.5 28.7808C22.054 28.7808 20.6984 28.7356 19.388 28.6452C18.5747 27.4704 17.8517 26.2955 17.1739 25.1207C16.4509 23.9006 15.8183 22.6806 15.2308 21.4606ZM32.8988 19.0205L31.6788 16.7612C31.2269 15.993 30.8202 15.27 30.3232 14.547C31.724 14.7278 33.0344 14.9537 34.2996 15.2248C33.8929 16.49 33.4411 17.7553 32.8988 19.0205ZM32.8988 23.9006C33.4411 25.1659 33.8929 26.4311 34.2996 27.6511C33.0344 27.9223 31.724 28.1482 30.3232 28.3289C30.775 27.6059 31.2269 26.883 31.6788 26.1148C32.0855 25.437 32.4921 24.6688 32.8988 23.9006ZM33.9381 39.5804C33.5766 39.8063 33.1248 39.8967 32.6277 39.8967C30.4136 39.8967 27.6572 38.0892 24.946 35.378C26.2564 33.9773 27.5216 32.3957 28.7868 30.6335C30.9106 30.4527 32.944 30.1364 34.8418 29.6845C35.0678 30.4979 35.2033 31.3112 35.3389 32.1246C35.9715 35.9655 35.4745 38.7219 33.9381 39.5804ZM36.2878 15.767C41.3487 17.213 44.3762 19.4272 44.3762 21.4606C44.3762 23.2228 42.2976 24.9851 38.6375 26.3859C37.9145 26.657 37.1012 26.9281 36.2878 27.1541C35.7004 25.3014 34.9774 23.4036 34.0737 21.4606C34.9774 19.5175 35.7456 17.6197 36.2878 15.767ZM32.6729 3.02442C33.1699 3.02442 33.5766 3.11479 33.9833 3.34072C35.4745 4.19927 36.0167 6.91047 35.3841 10.7965C35.2485 11.5647 35.0678 12.378 34.887 13.2366C32.9892 12.8299 30.9558 12.5136 28.832 12.2877C27.612 10.5254 26.3016 8.94387 24.9912 7.54308C27.7024 4.87707 30.4587 3.02442 32.6729 3.02442ZM26.0305 12.1069C25.2171 12.0617 24.3585 12.0617 23.5 12.0617C22.6415 12.0617 21.7829 12.0617 20.9695 12.1069C21.7829 11.0224 22.6415 10.0283 23.5 9.07942C24.3585 10.0283 25.2171 11.0676 26.0305 12.1069ZM13.0619 3.34072C13.4234 3.11479 13.8752 3.02442 14.3723 3.02442C16.5864 3.02442 19.3428 4.83188 22.054 7.54308C20.7436 8.94387 19.4784 10.5254 18.2132 12.2877C16.0894 12.4684 14.056 12.7847 12.1582 13.2366C11.9322 12.4232 11.7967 11.6099 11.6611 10.7965C11.0285 6.95565 11.5255 4.24446 13.0619 3.34072ZM10.7122 27.1541C5.65128 25.7081 2.62377 23.494 2.62377 21.4606C2.62377 19.6983 4.70236 17.936 8.36247 16.5352C9.08546 16.2641 9.89882 15.993 10.7122 15.767C11.2996 17.6197 12.0226 19.5175 12.9263 21.4606C12.0226 23.4036 11.2544 25.3466 10.7122 27.1541ZM11.6611 32.1246C11.7967 31.3564 11.9774 30.5431 12.1582 29.6845C14.056 30.0912 16.0894 30.4075 18.2132 30.6335C19.4332 32.3957 20.7436 33.9773 22.054 35.378C19.3428 38.0441 16.5864 39.8967 14.3723 39.8967C13.8752 39.8967 13.4686 39.8063 13.0619 39.5804C11.5255 38.7219 11.0285 35.9655 11.6611 32.1246ZM9.76326 50.7415C10.7574 49.5215 10.8026 48.1659 10.2603 46.8103C9.71807 45.4547 8.58841 44.8221 7.18762 44.7769C5.51572 44.7317 3.79862 44.7769 2.12672 44.7769H1.81041V56.4802H3.16601V52.0519H5.28978C5.5609 52.0519 5.78684 52.1423 5.9224 52.3682L8.63359 56.5706C8.67878 56.6609 8.81434 56.7965 8.90471 56.7965H10.667C9.58251 55.1246 8.54322 53.5431 7.45874 51.9164C8.40766 51.7808 9.22102 51.4645 9.76326 50.7415ZM3.16601 50.6511V46.1777H3.66306C4.70236 46.1777 5.78684 46.1325 6.82613 46.2228C8.04617 46.268 8.90471 47.2169 8.90471 48.437C8.90471 49.657 7.91061 50.6059 6.69057 50.6511C5.60609 50.6963 4.52161 50.6511 3.16601 50.6511ZM20.6532 51.2386C19.9303 48.0755 17.0383 47.2621 14.8242 48.2562C13.1071 49.0244 12.3389 50.5156 12.2937 52.3682C12.2485 53.769 12.6552 55.0342 13.7397 55.9832C14.9597 57.0676 16.4509 57.2032 17.9872 56.9321C18.8458 56.7513 19.6139 56.3446 20.2014 55.712C19.9754 55.3957 19.7495 55.0794 19.5236 54.8083C18.2583 55.8928 16.8576 56.2543 15.3212 55.5313C14.3271 55.0342 13.8301 53.8142 13.7397 52.9105H20.7436V52.323C20.7888 51.9164 20.7436 51.5549 20.6532 51.2386ZM13.8301 51.9615C13.6945 50.6059 15.0501 49.16 16.5413 49.16C18.2583 49.1148 19.3428 50.1541 19.388 51.9615H13.8301ZM27.7024 48.0303C27.0246 47.8947 26.3016 47.8496 25.6238 47.8947C24.5393 47.9851 23.5904 48.4822 22.8222 49.2955C23.0481 49.6118 23.2289 49.9281 23.5 50.2896C23.5904 50.1993 23.6807 50.1089 23.7711 50.0637C24.4941 49.3859 25.3527 49.0244 26.3919 49.1148C27.2053 49.16 27.9735 49.4311 28.1994 50.2444C28.3802 50.8771 28.335 51.5549 28.3802 52.2327C28.2446 52.2327 28.1994 52.1875 28.1542 52.1423C27.0697 51.2386 25.8497 51.0578 24.5393 51.3741C23.3193 51.6904 22.5511 52.6393 22.4607 53.8594C22.3703 55.2602 23.0029 56.2995 24.223 56.7965C24.9912 57.1128 25.8497 57.1128 26.6631 56.9321C27.2957 56.7965 27.5668 56.435 28.4705 55.938V56.5254H29.7358C29.7358 54.7179 29.7809 52.5038 29.7358 50.4252C29.7358 49.1148 28.9676 48.3014 27.7024 48.0303ZM28.335 53.7238C28.2898 53.8594 28.335 53.9949 28.335 54.1305C28.335 55.0794 28.109 55.3957 27.2053 55.7572C26.5727 55.9832 25.8949 56.0735 25.2171 55.8476C24.4489 55.6217 23.9067 54.9439 23.9067 54.1757C23.8615 53.4075 24.3585 52.6393 25.1267 52.4134C26.166 52.0519 27.1149 52.2778 27.9735 52.9105C28.2446 53.1364 28.4253 53.3623 28.335 53.7238ZM35.3841 49.2503C36.5589 48.8889 37.6434 49.1148 38.4568 50.1089L38.5923 50.1993C38.9086 49.9281 39.1798 49.657 39.5413 49.3407C39.4057 49.2052 39.3605 49.1148 39.2701 48.9792C37.9597 47.5784 35.3841 47.3977 33.8026 48.5274C31.5884 50.1541 31.6336 53.3171 32.7181 54.989C33.7574 56.5706 35.2485 57.1128 37.0108 56.8869C38.0501 56.7513 38.9086 56.2543 39.5864 55.3957C39.2701 55.1246 38.9538 54.8535 38.6375 54.5372C38.5471 54.6276 38.502 54.6727 38.4568 54.7631C37.2367 56.1187 35.2033 55.9832 34.1189 54.5372C33.4862 53.6786 33.3507 52.6845 33.5314 51.6904C33.6218 50.5608 34.2092 49.657 35.3841 49.2503ZM44.7829 55.3957C44.6925 55.4409 44.6473 55.4861 44.6473 55.4861C44.2859 55.7572 43.9244 55.8024 43.5177 55.6668C43.111 55.4861 43.0658 55.1246 43.0206 54.7631V49.6118C43.0206 49.5215 43.0206 49.7022 43.0658 49.2503H44.7829V47.8947H42.9754V45.6354H41.6198V48.0755H40.445C40.3546 48.0755 40.2191 48.1659 40.2191 48.2562C40.1739 48.5725 40.2191 48.7985 40.2191 49.2503H41.665V55.0342C41.665 55.7572 41.8458 56.3898 42.4784 56.7513C43.1562 57.158 44.4666 57.0676 45.054 56.5706C45.1444 56.5254 45.1896 56.3446 45.1896 56.2995C45.054 56.0283 44.9185 55.712 44.7829 55.3957Z" fill="#61DAFB"/>
</svg>
