<svg width="84" height="80" viewBox="0 0 84 80" fill="none" xmlns="http://www.w3.org/2000/svg">
<g filter="url(#filter0_d_11_11)">
<path d="M56.4671 50.1258C59.2348 49.8393 61.3345 47.4533 61.239 44.5899C61.1437 41.7267 58.7575 39.4359 55.8943 39.4359H55.7036C52.7446 39.5314 50.4542 42.0129 50.5497 44.9716C50.6452 46.4033 51.2177 47.6441 52.0767 48.503C48.8317 54.898 43.8688 59.5746 36.4245 63.4878C31.3661 66.1603 26.117 67.1148 20.8679 66.4468C16.5729 65.874 13.2325 63.9654 11.1325 60.8153C8.07861 56.1387 7.79238 51.08 10.3693 46.0216C12.1828 42.3946 15.0457 39.7222 16.8592 38.3859C16.4774 37.1452 15.9047 35.0455 15.6185 33.5186C1.77949 43.5401 3.21123 57.0932 7.41064 63.4878C10.5601 68.2603 16.9547 71.219 24.0173 71.219C25.926 71.219 27.8347 71.028 29.7436 70.551C41.9601 68.1648 51.218 60.9109 56.4671 50.1258ZM73.2647 38.2907C66.0111 29.7961 55.3219 25.1194 43.1054 25.1194H41.5784C40.7194 23.4015 38.9059 22.2559 36.9017 22.2559H36.7107C33.7523 22.3515 31.4619 24.8329 31.5571 27.7919C31.6526 30.6551 34.0386 32.9458 36.9017 32.9458H37.0925C39.1922 32.8503 41.0057 31.5141 41.7691 29.7006H43.4871C50.7407 29.7006 57.6123 31.8003 63.8162 35.9045C68.5881 39.0542 72.024 43.1584 73.9327 48.1213C75.5552 52.13 75.4597 56.0432 73.7417 59.3839C71.0695 64.4423 66.5839 67.2103 60.6665 67.2103C56.8488 67.2103 53.2222 66.0648 51.3132 65.2058C50.2635 66.1603 48.3545 67.6872 47.0183 68.642C51.1225 70.5507 55.3219 71.6007 59.3303 71.6007C68.4926 71.6007 75.2689 66.542 77.8459 61.4836C80.6136 55.9477 80.4225 46.4033 73.2647 38.2907ZM24.7808 51.748C24.8763 54.6114 27.2622 56.9019 30.1254 56.9019H30.3164C33.2751 56.8067 35.5655 54.3249 35.47 51.3662C35.3748 48.5027 32.9886 46.2123 30.1254 46.2123H29.9347C29.7436 46.2123 29.4571 46.2123 29.2667 46.3075C25.3535 39.8174 23.731 32.7548 24.3038 25.1191C24.6852 19.3925 26.5942 14.4293 29.9347 10.3251C32.7023 6.79363 38.047 5.07566 41.6739 4.98045C51.7904 4.78943 56.085 17.388 56.3716 22.4467C57.6123 22.7329 59.712 23.4012 61.1437 23.8784C59.9982 8.41668 50.4542 0.399292 41.2922 0.399292C32.7023 0.399292 24.7808 6.6032 21.6311 15.7658C17.2409 27.9826 20.1041 39.7222 25.4487 48.9803C24.9718 49.6483 24.6852 50.698 24.7808 51.748Z" fill="#A777F2"/>
</g>
<defs>
<filter id="filter0_d_11_11" x="0.5" y="0.399292" width="83" height="79.2014" filterUnits="userSpaceOnUse" color-interpolation-filters="sRGB">
<feFlood flood-opacity="0" result="BackgroundImageFix"/>
<feColorMatrix in="SourceAlpha" type="matrix" values="0 0 0 0 0 0 0 0 0 0 0 0 0 0 0 0 0 0 127 0" result="hardAlpha"/>
<feOffset dy="4"/>
<feGaussianBlur stdDeviation="2"/>
<feComposite in2="hardAlpha" operator="out"/>
<feColorMatrix type="matrix" values="0 0 0 0 0 0 0 0 0 0 0 0 0 0 0 0 0 0 0.25 0"/>
<feBlend mode="normal" in2="BackgroundImageFix" result="effect1_dropShadow_11_11"/>
<feBlend mode="normal" in="SourceGraphic" in2="effect1_dropShadow_11_11" result="shape"/>
</filter>
</defs>
</svg>
