<svg width="76" height="72" viewBox="0 0 76 72" fill="none" xmlns="http://www.w3.org/2000/svg">
<path d="M52.4671 50.1258C55.2348 49.8393 57.3345 47.4533 57.239 44.5899C57.1437 41.7267 54.7575 39.4359 51.8943 39.4359H51.7036C48.7446 39.5314 46.4542 42.0129 46.5497 44.9716C46.6452 46.4033 47.2177 47.6441 48.0767 48.503C44.8317 54.898 39.8688 59.5746 32.4245 63.4878C27.3661 66.1603 22.117 67.1148 16.8679 66.4468C12.5729 65.874 9.23252 63.9654 7.13252 60.8153C4.07861 56.1387 3.79238 51.08 6.36933 46.0216C8.18281 42.3946 11.0457 39.7222 12.8592 38.3859C12.4774 37.1452 11.9047 35.0455 11.6185 33.5186C-2.22051 43.5401 -0.788773 57.0932 3.41064 63.4878C6.56005 68.2603 12.9547 71.219 20.0173 71.219C21.926 71.219 23.8347 71.028 25.7436 70.551C37.9601 68.1648 47.218 60.9109 52.4671 50.1258ZM69.2647 38.2907C62.0111 29.7961 51.3219 25.1194 39.1054 25.1194H37.5784C36.7194 23.4015 34.9059 22.2559 32.9017 22.2559H32.7107C29.7523 22.3515 27.4619 24.8329 27.5571 27.7919C27.6526 30.6551 30.0386 32.9458 32.9017 32.9458H33.0925C35.1922 32.8503 37.0057 31.5141 37.7691 29.7006H39.4871C46.7407 29.7006 53.6123 31.8003 59.8162 35.9045C64.5881 39.0542 68.024 43.1584 69.9327 48.1213C71.5552 52.13 71.4597 56.0432 69.7417 59.3839C67.0695 64.4423 62.5839 67.2103 56.6665 67.2103C52.8488 67.2103 49.2222 66.0648 47.3132 65.2058C46.2635 66.1603 44.3545 67.6872 43.0183 68.642C47.1225 70.5507 51.3219 71.6007 55.3303 71.6007C64.4926 71.6007 71.2689 66.542 73.8459 61.4836C76.6136 55.9477 76.4225 46.4033 69.2647 38.2907ZM20.7808 51.748C20.8763 54.6114 23.2622 56.9019 26.1254 56.9019H26.3164C29.2751 56.8067 31.5655 54.3249 31.47 51.3662C31.3748 48.5027 28.9886 46.2123 26.1254 46.2123H25.9347C25.7436 46.2123 25.4571 46.2123 25.2667 46.3075C21.3535 39.8174 19.731 32.7548 20.3038 25.1191C20.6852 19.3925 22.5942 14.4293 25.9347 10.3251C28.7023 6.79363 34.047 5.07566 37.6739 4.98045C47.7904 4.78943 52.085 17.388 52.3716 22.4467C53.6123 22.7329 55.712 23.4012 57.1437 23.8784C55.9982 8.41668 46.4542 0.399292 37.2922 0.399292C28.7023 0.399292 20.7808 6.6032 17.6311 15.7658C13.2409 27.9826 16.1041 39.7222 21.4487 48.9803C20.9718 49.6483 20.6852 50.698 20.7808 51.748Z" fill="#A777F2"/>
</svg>
