<svg width="119" height="92" viewBox="0 0 119 92" fill="none" xmlns="http://www.w3.org/2000/svg">
<g filter="url(#filter0_d_13_14)">
<path d="M99.2186 48.1757C95.3812 48.1955 92.0458 49.1197 89.2533 50.486C88.2282 48.4566 87.2036 46.6487 87.0231 45.3224C86.8218 43.7756 86.581 42.8311 86.8218 40.9826C87.0631 39.1342 88.1481 36.5019 88.1278 36.3011C88.1076 36.1004 87.8865 35.1559 85.6766 35.136C83.4666 35.1162 81.5578 35.5579 81.3368 36.1404C81.1157 36.723 80.6939 38.0492 80.4125 39.4151C80.0308 41.4247 75.9926 48.5971 73.6822 52.3543C72.9385 50.8881 72.2957 49.6019 72.1548 48.5773C71.954 47.0304 71.7127 46.0859 71.954 44.2375C72.1953 42.389 73.2802 39.7572 73.26 39.556C73.2397 39.3552 73.0187 38.4107 70.8087 38.3909C68.5983 38.3706 66.6895 38.8127 66.4689 39.3953C66.2479 39.9782 66.0066 41.3441 65.5447 42.6704C65.0828 43.9966 59.7179 55.9715 58.3116 59.0652C57.7432 60.3174 57.147 61.5568 56.5234 62.7824C56.5234 62.7824 56.5032 62.8427 56.4428 62.9431C56.2469 63.3274 56.0461 63.7092 55.8405 64.0884V64.1082C55.5389 64.6511 55.2174 65.1531 55.0567 65.1531C54.9361 65.1531 54.715 63.7066 55.0968 61.7375C55.9004 57.5787 57.8091 51.1091 57.7893 50.8881C57.7893 50.7674 58.1508 49.6424 56.5437 49.0594C54.9761 48.4769 54.4138 49.4412 54.2729 49.4412C54.132 49.4412 54.0316 49.7829 54.0316 49.7829C54.0316 49.7829 55.7801 42.5096 50.6967 42.5096C47.5224 42.5096 43.1421 45.9855 40.9722 49.1197C38.5055 50.4621 36.0409 51.8083 33.5783 53.1583C32.3934 53.8215 31.1676 54.4846 30.0223 55.1072C29.9417 55.0271 29.8616 54.9262 29.781 54.8461C23.6328 48.2761 12.2611 43.6347 12.7433 34.8146C12.9242 31.5998 14.029 23.1611 34.5831 12.9144C51.5002 4.57609 64.9621 6.88645 67.2928 12.01C70.6277 19.3237 60.0799 32.9058 42.5996 34.8745C35.9292 35.6182 32.4331 33.0463 31.5493 32.082C30.6251 31.0772 30.4842 31.0169 30.1425 31.2181C29.5802 31.5197 29.9417 32.4237 30.1425 32.9459C30.6652 34.3118 32.8148 36.723 36.4514 37.9087C39.6662 38.9532 47.4819 39.5362 56.9452 35.8793C67.5336 31.7804 75.8116 20.3884 73.3806 10.8449C70.9492 1.16052 54.8757 -2.034 39.6662 3.37049C30.6251 6.5857 20.8201 11.6485 13.7679 18.2388C5.38948 26.0743 4.06324 32.8856 4.60572 35.7388C6.55501 45.8649 20.5189 52.4551 26.1043 57.3374C25.823 57.4981 25.5614 57.639 25.3408 57.7597C22.5479 59.1458 11.8992 64.711 9.24713 70.5981C6.23357 77.2685 9.72971 82.0508 12.0401 82.6932C19.2129 84.6826 26.5865 81.1063 30.5445 75.199C34.5026 69.2921 34.0204 61.6169 32.1922 58.1009C32.172 58.0609 32.1521 58.0204 32.1116 57.9803C32.8351 57.5585 33.5783 57.1164 34.3018 56.6946C35.6314 55.9085 36.9779 55.1515 38.3404 54.4238C37.657 56.2925 37.1546 58.5228 36.9138 61.7375C36.6121 65.515 38.159 70.4171 40.1884 72.3457C41.0928 73.1902 42.1575 73.2101 42.8409 73.2101C45.2116 73.2101 46.2767 71.241 47.4621 68.9103C48.9085 66.0575 50.2145 62.7423 50.2145 62.7423C50.2145 62.7423 48.5871 71.7033 53.0075 71.7033C54.6146 71.7033 56.242 69.6135 56.9655 68.5488V68.5687C56.9655 68.5687 57.0056 68.5083 57.0861 68.3679C57.2469 68.1068 57.3472 67.9456 57.3472 67.9456V67.906C57.9901 66.7805 59.437 64.2289 61.5866 59.9895C64.3593 54.5247 67.0316 47.6935 67.0316 47.6935C67.0316 47.6935 67.2729 49.361 68.0963 52.1337C68.5789 53.7611 69.5829 55.5493 70.3869 57.2771C69.744 58.1815 69.342 58.6835 69.342 58.6835L69.3623 58.7037C68.8396 59.3867 68.2773 60.1299 67.6543 60.8538C65.4641 63.4654 62.8526 66.4595 62.4906 67.323C62.0684 68.3476 62.1692 69.0913 62.9732 69.6941C63.5558 70.1362 64.6002 70.1961 65.6653 70.1362C67.6344 69.9953 69.0206 69.5131 69.7035 69.212C70.7686 68.8302 72.0143 68.2472 73.1794 67.3833C75.3295 65.796 76.635 63.5257 76.5148 60.5324C76.4545 58.8847 75.912 57.237 75.2489 55.6898C75.4501 55.4088 75.6307 55.1275 75.8319 54.8461C79.2272 49.8833 81.8594 44.4383 81.8594 44.4383C81.8594 44.4383 82.1007 46.1058 82.9241 48.8789C83.3261 50.2853 84.15 51.8123 84.873 53.2988C81.6785 55.891 79.7093 58.9045 79.0062 60.8736C77.7407 64.5305 78.7248 66.1777 80.5935 66.5595C81.4372 66.7404 82.6428 66.3384 83.5269 65.9567C84.6519 65.5952 85.9782 64.9726 87.2441 64.0479C89.3942 62.461 91.4632 60.2506 91.3426 57.2573C91.2823 55.891 90.9208 54.5445 90.4184 53.2385C93.1307 52.1139 96.6269 51.4909 101.087 52.0131C110.651 53.1381 112.54 59.1053 112.178 61.6173C111.816 64.1285 109.807 65.4948 109.144 65.9166C108.481 66.3389 108.26 66.4793 108.32 66.7805C108.401 67.2226 108.722 67.2028 109.285 67.1222C110.069 66.9817 114.308 65.0928 114.488 60.4716C114.79 54.5647 109.164 48.1154 99.2186 48.1757ZM25.4412 73.0494C22.2665 76.505 17.8466 77.811 15.9378 76.7062C13.8885 75.5204 14.6921 70.4171 18.5898 66.7607C20.9605 64.5305 24.0146 62.4605 26.044 61.1951C26.5059 60.9137 27.1893 60.5121 28.0131 60.0097C28.1536 59.9291 28.2342 59.8891 28.2342 59.8891L28.7163 59.5875C30.1425 64.8114 28.7766 69.4128 25.4412 73.0494ZM48.547 57.3374C47.4418 60.03 45.1314 66.9214 43.7251 66.5397C42.5195 66.2182 41.7758 60.9943 43.4838 55.8306C44.3477 53.2385 46.1759 50.1444 47.241 48.9392C48.9688 47.0102 50.8776 46.3669 51.3395 47.1511C51.9225 48.1757 49.2299 55.6497 48.547 57.3374ZM67.6142 66.4591C67.1519 66.7004 66.7102 66.8611 66.509 66.7405C66.3685 66.6599 66.7102 66.3384 66.7102 66.3384C66.7102 66.3384 69.1012 63.767 70.0452 62.6014C70.5881 61.9185 71.2305 61.1149 71.9139 60.2105V60.4716C71.9139 63.5459 68.94 65.6154 67.6138 66.4591M82.3209 63.1039C81.9792 62.8626 82.0395 62.059 83.1848 59.5474C83.6269 58.5628 84.6713 56.9156 86.4599 55.3282C86.6607 55.9711 86.8016 56.5942 86.7813 57.1767C86.7611 61.0546 83.9888 62.5011 82.3209 63.1039Z" fill="#CD6799"/>
</g>
<defs>
<filter id="filter0_d_13_14" x="0.5" y="0.753387" width="118" height="90.4932" filterUnits="userSpaceOnUse" color-interpolation-filters="sRGB">
<feFlood flood-opacity="0" result="BackgroundImageFix"/>
<feColorMatrix in="SourceAlpha" type="matrix" values="0 0 0 0 0 0 0 0 0 0 0 0 0 0 0 0 0 0 127 0" result="hardAlpha"/>
<feOffset dy="4"/>
<feGaussianBlur stdDeviation="2"/>
<feComposite in2="hardAlpha" operator="out"/>
<feColorMatrix type="matrix" values="0 0 0 0 0 0 0 0 0 0 0 0 0 0 0 0 0 0 0.25 0"/>
<feBlend mode="normal" in2="BackgroundImageFix" result="effect1_dropShadow_13_14"/>
<feBlend mode="normal" in="SourceGraphic" in2="effect1_dropShadow_13_14" result="shape"/>
</filter>
</defs>
</svg>
