<svg width="111" height="84" viewBox="0 0 111 84" fill="none" xmlns="http://www.w3.org/2000/svg">
<path d="M95.2186 48.1757C91.3812 48.1955 88.0458 49.1197 85.2533 50.486C84.2282 48.4566 83.2036 46.6487 83.0231 45.3224C82.8218 43.7756 82.581 42.8311 82.8218 40.9826C83.0631 39.1342 84.1481 36.5019 84.1278 36.3011C84.1076 36.1004 83.8865 35.1559 81.6766 35.136C79.4666 35.1162 77.5578 35.5579 77.3368 36.1404C77.1157 36.723 76.6939 38.0492 76.4125 39.4151C76.0308 41.4247 71.9926 48.5971 69.6822 52.3543C68.9385 50.8881 68.2957 49.6019 68.1548 48.5773C67.954 47.0304 67.7127 46.0859 67.954 44.2375C68.1953 42.389 69.2802 39.7572 69.26 39.556C69.2397 39.3552 69.0187 38.4107 66.8087 38.3909C64.5983 38.3706 62.6895 38.8127 62.4689 39.3953C62.2479 39.9782 62.0066 41.3441 61.5447 42.6704C61.0828 43.9966 55.7179 55.9715 54.3116 59.0652C53.7432 60.3174 53.147 61.5568 52.5234 62.7824C52.5234 62.7824 52.5032 62.8427 52.4428 62.9431C52.2469 63.3274 52.0461 63.7092 51.8405 64.0884V64.1082C51.5389 64.6511 51.2174 65.1531 51.0567 65.1531C50.9361 65.1531 50.715 63.7066 51.0968 61.7375C51.9004 57.5787 53.8091 51.1091 53.7893 50.8881C53.7893 50.7674 54.1508 49.6424 52.5437 49.0594C50.9761 48.4769 50.4138 49.4412 50.2729 49.4412C50.132 49.4412 50.0316 49.7829 50.0316 49.7829C50.0316 49.7829 51.7801 42.5096 46.6967 42.5096C43.5224 42.5096 39.1421 45.9855 36.9722 49.1197C34.5055 50.4621 32.0409 51.8083 29.5783 53.1583C28.3934 53.8215 27.1676 54.4846 26.0223 55.1072C25.9417 55.0271 25.8616 54.9262 25.781 54.8461C19.6328 48.2761 8.26111 43.6347 8.74326 34.8146C8.92423 31.5998 10.029 23.1611 30.5831 12.9144C47.5002 4.57609 60.9621 6.88645 63.2928 12.01C66.6277 19.3237 56.0799 32.9058 38.5996 34.8745C31.9292 35.6182 28.4331 33.0463 27.5493 32.082C26.6251 31.0772 26.4842 31.0169 26.1425 31.2181C25.5802 31.5197 25.9417 32.4237 26.1425 32.9459C26.6652 34.3118 28.8148 36.723 32.4514 37.9087C35.6662 38.9532 43.4819 39.5362 52.9452 35.8793C63.5336 31.7804 71.8116 20.3884 69.3806 10.8449C66.9492 1.16052 50.8757 -2.034 35.6662 3.37049C26.6251 6.5857 16.8201 11.6485 9.76789 18.2388C1.38948 26.0743 0.0632432 32.8856 0.605718 35.7388C2.55501 45.8649 16.5189 52.4551 22.1043 57.3374C21.823 57.4981 21.5614 57.639 21.3408 57.7597C18.5479 59.1458 7.89918 64.711 5.24713 70.5981C2.23357 77.2685 5.72971 82.0508 8.04007 82.6932C15.2129 84.6826 22.5865 81.1063 26.5445 75.199C30.5026 69.2921 30.0204 61.6169 28.1922 58.1009C28.172 58.0609 28.1521 58.0204 28.1116 57.9803C28.8351 57.5585 29.5783 57.1164 30.3018 56.6946C31.6314 55.9085 32.9779 55.1515 34.3404 54.4238C33.657 56.2925 33.1546 58.5228 32.9138 61.7375C32.6121 65.515 34.159 70.4171 36.1884 72.3457C37.0928 73.1902 38.1575 73.2101 38.8409 73.2101C41.2116 73.2101 42.2767 71.241 43.4621 68.9103C44.9085 66.0575 46.2145 62.7423 46.2145 62.7423C46.2145 62.7423 44.5871 71.7033 49.0075 71.7033C50.6146 71.7033 52.242 69.6135 52.9655 68.5488V68.5687C52.9655 68.5687 53.0056 68.5083 53.0861 68.3679C53.2469 68.1068 53.3472 67.9456 53.3472 67.9456V67.906C53.9901 66.7805 55.437 64.2289 57.5866 59.9895C60.3593 54.5247 63.0316 47.6935 63.0316 47.6935C63.0316 47.6935 63.2729 49.361 64.0963 52.1337C64.5789 53.7611 65.5829 55.5493 66.3869 57.2771C65.744 58.1815 65.342 58.6835 65.342 58.6835L65.3623 58.7037C64.8396 59.3867 64.2773 60.1299 63.6543 60.8538C61.4641 63.4654 58.8526 66.4595 58.4906 67.323C58.0684 68.3476 58.1692 69.0913 58.9732 69.6941C59.5558 70.1362 60.6002 70.1961 61.6653 70.1362C63.6344 69.9953 65.0206 69.5131 65.7035 69.212C66.7686 68.8302 68.0143 68.2472 69.1794 67.3833C71.3295 65.796 72.635 63.5257 72.5148 60.5324C72.4545 58.8847 71.912 57.237 71.2489 55.6898C71.4501 55.4088 71.6307 55.1275 71.8319 54.8461C75.2272 49.8833 77.8594 44.4383 77.8594 44.4383C77.8594 44.4383 78.1007 46.1058 78.9241 48.8789C79.3261 50.2853 80.15 51.8123 80.873 53.2988C77.6785 55.891 75.7093 58.9045 75.0062 60.8736C73.7407 64.5305 74.7248 66.1777 76.5935 66.5595C77.4372 66.7404 78.6428 66.3384 79.5269 65.9567C80.6519 65.5952 81.9782 64.9726 83.2441 64.0479C85.3942 62.461 87.4632 60.2506 87.3426 57.2573C87.2823 55.891 86.9208 54.5445 86.4184 53.2385C89.1307 52.1139 92.6269 51.4909 97.0869 52.0131C106.651 53.1381 108.54 59.1053 108.178 61.6173C107.816 64.1285 105.807 65.4948 105.144 65.9166C104.481 66.3389 104.26 66.4793 104.32 66.7805C104.401 67.2226 104.722 67.2028 105.285 67.1222C106.069 66.9817 110.308 65.0928 110.488 60.4716C110.79 54.5647 105.164 48.1154 95.2186 48.1757ZM21.4412 73.0494C18.2665 76.505 13.8466 77.811 11.9378 76.7062C9.88854 75.5204 10.6921 70.4171 14.5898 66.7607C16.9605 64.5305 20.0146 62.4605 22.044 61.1951C22.5059 60.9137 23.1893 60.5121 24.0131 60.0097C24.1536 59.9291 24.2342 59.8891 24.2342 59.8891L24.7163 59.5875C26.1425 64.8114 24.7766 69.4128 21.4412 73.0494ZM44.547 57.3374C43.4418 60.03 41.1314 66.9214 39.7251 66.5397C38.5195 66.2182 37.7758 60.9943 39.4838 55.8306C40.3477 53.2385 42.1759 50.1444 43.241 48.9392C44.9688 47.0102 46.8776 46.3669 47.3395 47.1511C47.9225 48.1757 45.23 55.6497 44.547 57.3374ZM63.6142 66.4591C63.1519 66.7004 62.7102 66.8611 62.509 66.7405C62.3685 66.6599 62.7102 66.3384 62.7102 66.3384C62.7102 66.3384 65.1011 63.767 66.0452 62.6014C66.5881 61.9185 67.2305 61.1149 67.9139 60.2105V60.4716C67.9139 63.5459 64.94 65.6154 63.6138 66.4591M78.3209 63.1038C77.9792 62.8626 78.0395 62.059 79.1848 59.5474C79.6269 58.5628 80.6713 56.9156 82.4599 55.3282C82.6607 55.9711 82.8016 56.5942 82.7813 57.1767C82.7611 61.0546 79.9888 62.5011 78.3209 63.1038Z" fill="#CD6799"/>
</svg>
