<svg width="101" height="60" viewBox="0 0 101 60" fill="none" xmlns="http://www.w3.org/2000/svg">
<path d="M50.5 0C37.1657 0 28.8348 6.66441 25.4987 19.9987C30.4974 13.3335 36.3329 10.8342 42.9981 12.5007C46.8037 13.4491 49.5234 16.2087 52.5353 19.2666C57.4371 24.2411 63.1108 30 75.5013 30C88.8348 30 97.1665 23.3348 100.503 9.99739C95.5023 16.666 89.669 19.1666 83.0025 17.4993C79.1976 16.5501 76.4811 13.7913 73.4653 10.7334C68.5666 5.75889 62.8944 0 50.5 0ZM25.4987 30C12.1652 30 3.83352 36.6652 0.497406 50.0026C5.49715 43.334 11.3303 40.8334 17.9968 42.5007C21.8024 43.4499 24.5221 46.2087 27.534 49.2666C32.4358 54.2411 38.1095 60 50.5 60C63.8335 60 72.1652 53.3356 75.5013 40.0013C70.501 46.6668 64.6677 49.1661 58.0012 47.4994C54.1963 46.5509 51.4797 43.7913 48.464 40.7334C43.5653 35.7589 37.8931 30 25.4987 30Z" fill="#38BDF8"/>
</svg>
