<svg width="75" height="74" viewBox="0 0 75 74" fill="none" xmlns="http://www.w3.org/2000/svg">
<path d="M15.6776 24.0717H68.3033V62.9695H15.6776V24.0717Z" fill="black"/>
<g filter="url(#filter0_d_9_21)">
<path d="M4.5 33V66H70.5V0H4.5V33ZM57.6854 30.36C59.2662 30.7268 60.7029 31.5536 61.8144 32.736C62.4262 33.3731 62.9581 34.0823 63.3984 34.848C63.3984 34.9325 60.5472 36.8597 58.8101 37.9368C58.7467 37.979 58.4933 37.7045 58.2134 37.2874C57.8963 36.7402 57.4458 36.2822 56.9038 35.9563C56.3618 35.6304 55.7461 35.4471 55.1141 35.4235C53.113 35.2862 51.8246 36.337 51.8352 38.0635C51.8192 38.4933 51.9176 38.9197 52.1203 39.299C52.5586 40.2125 53.377 40.7563 55.943 41.8651C60.6686 43.8979 62.6909 45.239 63.9475 47.1451C65.352 49.2571 65.6635 52.668 64.7131 55.1918C63.6571 57.9374 61.0699 59.8013 57.4109 60.419C55.7397 60.6106 54.0511 60.5928 52.3843 60.3662C49.8297 59.9451 47.4765 58.7186 45.6682 56.8656C45.061 56.195 43.8782 54.4474 43.9522 54.3206C44.1445 54.177 44.3475 54.0482 44.5594 53.9352L47.004 52.5835L48.8995 51.4853L49.2955 52.0714C49.964 53.0272 50.8145 53.8418 51.7982 54.4685C53.9102 55.5773 56.7931 55.4242 58.2187 54.1411C58.6974 53.671 58.996 53.0478 59.0625 52.3802C59.1291 51.7126 58.9594 51.0428 58.583 50.4874C58.055 49.7534 56.999 49.1357 54.0475 47.8474C50.6419 46.3795 49.1741 45.4714 47.833 44.0246C46.996 43.0698 46.3779 41.9435 46.0219 40.7246C45.7566 39.332 45.7174 37.9057 45.9058 36.5006C46.608 33.2112 49.0738 30.9144 52.6747 30.2333C54.3424 30.0273 56.0316 30.0735 57.6854 30.3706V30.36ZM42.1939 33.1267V35.8301H33.6245V60.2395H27.5472V35.8248H18.9566V33.1848C18.9297 32.2744 18.9508 31.3632 19.02 30.455C19.0622 30.4075 24.3 30.4075 30.636 30.4075H42.1622L42.1939 33.1267Z" fill="#007ACC"/>
</g>
<defs>
<filter id="filter0_d_9_21" x="0.5" y="0" width="74" height="74" filterUnits="userSpaceOnUse" color-interpolation-filters="sRGB">
<feFlood flood-opacity="0" result="BackgroundImageFix"/>
<feColorMatrix in="SourceAlpha" type="matrix" values="0 0 0 0 0 0 0 0 0 0 0 0 0 0 0 0 0 0 127 0" result="hardAlpha"/>
<feOffset dy="4"/>
<feGaussianBlur stdDeviation="2"/>
<feComposite in2="hardAlpha" operator="out"/>
<feColorMatrix type="matrix" values="0 0 0 0 0 0 0 0 0 0 0 0 0 0 0 0 0 0 0.25 0"/>
<feBlend mode="normal" in2="BackgroundImageFix" result="effect1_dropShadow_9_21"/>
<feBlend mode="normal" in="SourceGraphic" in2="effect1_dropShadow_9_21" result="shape"/>
</filter>
</defs>
</svg>
