<svg width="67" height="66" viewBox="0 0 67 66" fill="none" xmlns="http://www.w3.org/2000/svg">
<path d="M11.6776 24.0717H64.3033V62.9695H11.6776V24.0717Z" fill="black"/>
<path d="M0.5 33V66H66.5V0H0.5V33ZM53.6854 30.36C55.2662 30.7268 56.7029 31.5536 57.8144 32.736C58.4262 33.3731 58.9581 34.0823 59.3984 34.848C59.3984 34.9325 56.5472 36.8597 54.8101 37.9368C54.7467 37.979 54.4933 37.7045 54.2134 37.2874C53.8963 36.7402 53.4458 36.2823 52.9038 35.9563C52.3618 35.6304 51.7461 35.4471 51.1141 35.4235C49.113 35.2862 47.8246 36.337 47.8352 38.0635C47.8192 38.4933 47.9176 38.9197 48.1203 39.299C48.5586 40.2125 49.377 40.7563 51.943 41.8651C56.6686 43.8979 58.6909 45.239 59.9475 47.1451C61.352 49.2571 61.6635 52.668 60.7131 55.1918C59.6571 57.9374 57.0699 59.8013 53.4109 60.419C51.7397 60.6106 50.0511 60.5928 48.3843 60.3662C45.8297 59.9451 43.4765 58.7186 41.6682 56.8656C41.061 56.195 39.8782 54.4474 39.9522 54.3206C40.1445 54.177 40.3475 54.0482 40.5594 53.9352L43.004 52.5835L44.8995 51.4853L45.2955 52.0714C45.964 53.0272 46.8145 53.8418 47.7982 54.4685C49.9102 55.5773 52.7931 55.4242 54.2187 54.1411C54.6974 53.671 54.996 53.0478 55.0625 52.3802C55.1291 51.7126 54.9594 51.0428 54.583 50.4874C54.055 49.7534 52.999 49.1357 50.0475 47.8474C46.6419 46.3795 45.1741 45.4714 43.833 44.0246C42.996 43.0698 42.3779 41.9435 42.0219 40.7246C41.7566 39.332 41.7174 37.9057 41.9058 36.5006C42.608 33.2112 45.0738 30.9144 48.6747 30.2333C50.3424 30.0273 52.0316 30.0735 53.6854 30.3706V30.36ZM38.1939 33.1267V35.8301H29.6245V60.2395H23.5472V35.8248H14.9566V33.1848C14.9297 32.2744 14.9508 31.3632 15.02 30.455C15.0622 30.4075 20.3 30.4075 26.636 30.4075H38.1622L38.1939 33.1267Z" fill="#007ACC"/>
</svg>
