<svg width="141" height="38" viewBox="0 0 141 38" fill="none" xmlns="http://www.w3.org/2000/svg">
<g filter="url(#filter0_d_164_7)">
<path d="M70.3423 7.50006C65.1674 7.50006 61.4362 10.875 61.4362 15.9374C61.4362 21 65.6361 24.375 70.8113 24.375C73.9378 24.375 76.6939 23.1375 78.4004 21.0515L74.8142 18.9798C73.8674 20.0156 72.4283 20.6203 70.811 20.6203C68.5659 20.6203 66.658 19.4485 65.9501 17.5735H79.0845C79.1878 17.0483 79.2486 16.5045 79.2486 15.9327C79.2486 10.875 75.5175 7.50006 70.3423 7.50006ZM65.9084 14.2969C66.4942 12.4265 68.0974 11.2498 70.3379 11.2498C72.5833 11.2498 74.1865 12.4265 74.7676 14.2969H65.9084ZM120.818 7.49981C115.643 7.49981 111.911 10.875 111.911 15.9374C111.911 21 116.111 24.375 121.286 24.375C124.413 24.375 127.169 23.1375 128.875 21.0515L125.289 18.9798C124.342 20.0156 122.904 20.6203 121.286 20.6203C119.041 20.6203 117.133 19.4485 116.425 17.5735H129.559C129.662 17.0483 129.723 16.5045 129.723 15.9327C129.723 10.875 125.992 7.49981 120.817 7.49981M116.387 14.2969C116.973 12.4265 118.576 11.2498 120.817 11.2498C123.062 11.2498 124.665 12.4265 125.247 14.2969H116.387ZM98.092 15.9374C98.092 18.7499 99.9297 20.6249 102.78 20.6249C104.711 20.6249 106.159 19.7485 106.905 18.3187L110.505 20.3953C109.014 22.8796 106.22 24.375 102.78 24.375C97.5999 24.375 93.8734 20.9997 93.8734 15.9374C93.8734 10.875 97.6046 7.50006 102.78 7.50006C106.22 7.50006 109.009 8.99537 110.505 11.4797L106.905 13.5563C106.159 12.1265 104.711 11.2501 102.78 11.2501C99.9344 11.2501 98.092 13.1246 98.092 15.9374ZM136.755 2.34377V23.9062H132.536V2.34377H136.755ZM21.5504 0L38.8705 30H4.2301L21.5504 0ZM64.8534 2.34377L51.8644 24.8437L38.8752 2.34377H43.7457L51.8644 16.4064L59.9831 2.34377H64.8534ZM92.4674 7.96882V12.5109C91.9987 12.375 91.502 12.2813 90.9675 12.2813C88.244 12.2813 86.2799 14.1563 86.2799 16.9688V23.9062H82.0611V7.96882H86.2799V12.281C86.2799 9.89974 89.0503 7.96882 92.4674 7.96882Z" fill="black"/>
</g>
<defs>
<filter id="filter0_d_164_7" x="0.230103" y="0" width="140.525" height="38" filterUnits="userSpaceOnUse" color-interpolation-filters="sRGB">
<feFlood flood-opacity="0" result="BackgroundImageFix"/>
<feColorMatrix in="SourceAlpha" type="matrix" values="0 0 0 0 0 0 0 0 0 0 0 0 0 0 0 0 0 0 127 0" result="hardAlpha"/>
<feOffset dy="4"/>
<feGaussianBlur stdDeviation="2"/>
<feComposite in2="hardAlpha" operator="out"/>
<feColorMatrix type="matrix" values="0 0 0 0 0 0 0 0 0 0 0 0 0 0 0 0 0 0 0.25 0"/>
<feBlend mode="normal" in2="BackgroundImageFix" result="effect1_dropShadow_164_7"/>
<feBlend mode="normal" in="SourceGraphic" in2="effect1_dropShadow_164_7" result="shape"/>
</filter>
</defs>
</svg>
