<svg width="134" height="30" viewBox="0 0 134 30" fill="none" xmlns="http://www.w3.org/2000/svg">
<path d="M66.8666 7.50006C61.6917 7.50006 57.9605 10.875 57.9605 15.9374C57.9605 21 62.1604 24.375 67.3356 24.375C70.4621 24.375 73.2182 23.1375 74.9247 21.0515L71.3385 18.9798C70.3917 20.0156 68.9525 20.6203 67.3353 20.6203C65.0902 20.6203 63.1823 19.4485 62.4744 17.5735H75.6088C75.7121 17.0483 75.7729 16.5045 75.7729 15.9327C75.7729 10.875 72.0418 7.50006 66.8666 7.50006ZM62.4327 14.2969C63.0184 12.4265 64.6217 11.2498 66.8622 11.2498C69.1076 11.2498 70.7108 12.4265 71.2919 14.2969H62.4327ZM117.342 7.49981C112.167 7.49981 108.436 10.875 108.436 15.9374C108.436 21 112.635 24.375 117.811 24.375C120.937 24.375 123.693 23.1375 125.4 21.0515L121.814 18.9798C120.867 20.0156 119.428 20.6203 117.811 20.6203C115.565 20.6203 113.657 19.4485 112.95 17.5735H126.083C126.187 17.0483 126.247 16.5045 126.247 15.9327C126.247 10.875 122.516 7.49981 117.341 7.49981M112.912 14.2969C113.498 12.4265 115.101 11.2498 117.341 11.2498C119.587 11.2498 121.19 12.4265 121.771 14.2969H112.912ZM94.6163 15.9374C94.6163 18.7499 96.454 20.6249 99.3038 20.6249C101.235 20.6249 102.683 19.7485 103.429 18.3187L107.029 20.3953C105.538 22.8796 102.745 24.375 99.3038 24.375C94.1242 24.375 90.3977 20.9997 90.3977 15.9374C90.3977 10.875 94.1289 7.50006 99.3038 7.50006C102.745 7.50006 105.533 8.99537 107.029 11.4797L103.429 13.5563C102.683 12.1265 101.235 11.2501 99.3038 11.2501C96.4587 11.2501 94.6163 13.1246 94.6163 15.9374ZM133.279 2.34377V23.9062H129.06V2.34377H133.279ZM18.0747 0L35.3948 30H0.754395L18.0747 0ZM61.3777 2.34377L48.3887 24.8437L35.3995 2.34377H40.27L48.3887 16.4064L56.5074 2.34377H61.3777ZM88.9917 7.96882V12.5109C88.523 12.375 88.0263 12.2813 87.4918 12.2813C84.7683 12.2813 82.8042 14.1563 82.8042 16.9688V23.9062H78.5854V7.96882H82.8042V12.281C82.8042 9.89974 85.5746 7.96882 88.9917 7.96882Z" fill="black"/>
</svg>
