<svg width="18" height="18" viewBox="0 0 18 18" fill="none" xmlns="http://www.w3.org/2000/svg">
<path fill-rule="evenodd" clip-rule="evenodd" d="M2.21295 4.80001C2.22795 5.55901 1.81495 6.58501 1.27795 7.12101C0.779654 7.61978 0.499756 8.29598 0.499756 9.00101C0.499756 9.70604 0.779654 10.3822 1.27795 10.881C1.80795 11.409 2.19795 12.325 2.21295 13.073C2.22695 13.735 2.48595 14.393 2.99095 14.897C3.45686 15.3639 4.08014 15.6402 4.73895 15.672C5.52995 15.712 6.56595 16.172 7.12595 16.732C7.62468 17.23 8.30066 17.5097 9.00545 17.5097C9.71024 17.5097 10.3862 17.23 10.8849 16.732C11.4449 16.172 12.4809 15.712 13.2719 15.672C13.9308 15.6402 14.554 15.3639 15.0199 14.897C15.5057 14.412 15.7842 13.7573 15.7969 13.071C15.8119 12.325 16.1969 11.415 16.7259 10.887C17.2261 10.3884 17.5078 9.71151 17.5089 9.00525C17.51 8.29899 17.2305 7.62121 16.7319 7.12101C16.1959 6.58601 15.7819 5.55901 15.7979 4.80101C15.8055 4.44312 15.7404 4.08742 15.6067 3.75537C15.473 3.42332 15.2734 3.1218 15.0199 2.86901C14.7573 2.60565 14.4421 2.40054 14.0949 2.26701C13.7478 2.13349 13.3764 2.07454 13.0049 2.09401C12.2909 2.13001 11.3899 1.78401 10.8849 1.27801C10.3862 0.779715 9.70998 0.499817 9.00495 0.499817C8.29992 0.499817 7.62372 0.779715 7.12495 1.27801C6.62095 1.78301 5.71895 2.13001 5.00495 2.09401C4.63367 2.07468 4.26247 2.1337 3.91549 2.26722C3.56851 2.40074 3.2535 2.60578 2.99095 2.86901C2.73763 3.12168 2.5381 3.42304 2.40438 3.75491C2.27067 4.08678 2.20555 4.44229 2.21295 4.80001ZM12.0409 5.62601C12.1558 5.68974 12.257 5.77548 12.3387 5.87833C12.4204 5.98118 12.4811 6.09912 12.5172 6.22542C12.5533 6.35171 12.5642 6.48389 12.5492 6.6144C12.5343 6.7449 12.4937 6.87118 12.4299 6.98601L9.66195 11.968C9.59025 12.1037 9.48829 12.2211 9.36395 12.311C9.18327 12.4417 8.96407 12.5083 8.74121 12.5002C8.51834 12.492 8.30459 12.4096 8.13395 12.266L5.37495 10.059C5.27239 9.97693 5.18699 9.87546 5.12365 9.76038C5.0603 9.64531 5.02024 9.51888 5.00576 9.38832C4.99127 9.25776 5.00264 9.12562 5.03922 8.99946C5.0758 8.8733 5.13687 8.75557 5.21895 8.65301C5.30102 8.55045 5.4025 8.46505 5.51758 8.40171C5.63265 8.33836 5.75908 8.2983 5.88964 8.28382C6.0202 8.26933 6.15233 8.2807 6.2785 8.31728C6.40466 8.35386 6.52239 8.41493 6.62495 8.49701L8.47795 9.98001L10.6809 6.01401C10.7448 5.89923 10.8306 5.79815 10.9335 5.71653C11.0363 5.63491 11.1543 5.57436 11.2806 5.53833C11.4069 5.5023 11.539 5.4915 11.6695 5.50654C11.8 5.52159 11.9262 5.56218 12.0409 5.62601Z" fill="#FFE459"/>
</svg>
